%FSLAX25Y25*%
%MOIN*%
G70*
G01*
G75*
G04 Layer_Color=16711935*
%ADD10C,0.00866*%
%ADD11R,0.07087X0.03937*%
G04:AMPARAMS|DCode=12|XSize=31.5mil|YSize=66.93mil|CornerRadius=0mil|HoleSize=0mil|Usage=FLASHONLY|Rotation=45.000|XOffset=0mil|YOffset=0mil|HoleType=Round|Shape=Rectangle|*
%AMROTATEDRECTD12*
4,1,4,0.01253,-0.03480,-0.03480,0.01253,-0.01253,0.03480,0.03480,-0.01253,0.01253,-0.03480,0.0*
%
%ADD12ROTATEDRECTD12*%

%ADD13R,0.01654X0.02362*%
%ADD14R,0.03543X0.02756*%
%ADD15R,0.02756X0.02362*%
%ADD16R,0.02756X0.03937*%
%ADD17R,0.07402X0.06614*%
%ADD18O,0.01575X0.06299*%
%ADD19R,0.04331X0.03937*%
%ADD20R,0.01575X0.01575*%
%ADD21R,0.02362X0.01654*%
G04:AMPARAMS|DCode=22|XSize=31.5mil|YSize=66.93mil|CornerRadius=0mil|HoleSize=0mil|Usage=FLASHONLY|Rotation=135.000|XOffset=0mil|YOffset=0mil|HoleType=Round|Shape=Rectangle|*
%AMROTATEDRECTD22*
4,1,4,0.03480,0.01253,-0.01253,-0.03480,-0.03480,-0.01253,0.01253,0.03480,0.03480,0.01253,0.0*
%
%ADD22ROTATEDRECTD22*%

%ADD23R,0.03543X0.02362*%
%ADD24R,0.02362X0.03543*%
%ADD25R,0.03937X0.04331*%
%ADD26C,0.02000*%
%ADD27C,0.01200*%
%ADD28C,0.01000*%
%ADD29C,0.02500*%
%ADD30C,0.05000*%
%ADD31C,0.00800*%
%ADD32C,0.03000*%
%ADD33C,0.01500*%
%ADD34C,0.04200*%
%ADD35C,0.06000*%
%ADD36C,0.07874*%
%ADD37C,0.03937*%
%ADD38R,0.03937X0.03937*%
%ADD39C,0.02600*%
%ADD40C,0.03000*%
%ADD41C,0.02400*%
%ADD42C,0.03400*%
%ADD43C,0.05000*%
%ADD44C,0.04000*%
%ADD45C,0.04900*%
G04:AMPARAMS|DCode=46|XSize=65mil|YSize=65mil|CornerRadius=0mil|HoleSize=0mil|Usage=FLASHONLY|Rotation=0.000|XOffset=0mil|YOffset=0mil|HoleType=Round|Shape=Relief|Width=8mil|Gap=10mil|Entries=4|*
%AMTHD46*
7,0,0,0.06500,0.04500,0.00800,45*
%
%ADD46THD46*%
%ADD47C,0.06400*%
%ADD48C,0.08306*%
%ADD49C,0.04762*%
G04:AMPARAMS|DCode=50|XSize=63.622mil|YSize=63.622mil|CornerRadius=0mil|HoleSize=0mil|Usage=FLASHONLY|Rotation=0.000|XOffset=0mil|YOffset=0mil|HoleType=Round|Shape=Relief|Width=8mil|Gap=10mil|Entries=4|*
%AMTHD50*
7,0,0,0.06362,0.04362,0.00800,45*
%
%ADD50THD50*%
G04:AMPARAMS|DCode=51|XSize=80mil|YSize=80mil|CornerRadius=0mil|HoleSize=0mil|Usage=FLASHONLY|Rotation=0.000|XOffset=0mil|YOffset=0mil|HoleType=Round|Shape=Relief|Width=8mil|Gap=10mil|Entries=4|*
%AMTHD51*
7,0,0,0.08000,0.06000,0.00800,45*
%
%ADD51THD51*%
G04:AMPARAMS|DCode=52|XSize=50mil|YSize=50mil|CornerRadius=0mil|HoleSize=0mil|Usage=FLASHONLY|Rotation=0.000|XOffset=0mil|YOffset=0mil|HoleType=Round|Shape=Relief|Width=8mil|Gap=10mil|Entries=4|*
%AMTHD52*
7,0,0,0.05000,0.03000,0.00800,45*
%
%ADD52THD52*%
%ADD53C,0.04000*%
G04:AMPARAMS|DCode=54|XSize=56mil|YSize=56mil|CornerRadius=0mil|HoleSize=0mil|Usage=FLASHONLY|Rotation=0.000|XOffset=0mil|YOffset=0mil|HoleType=Round|Shape=Relief|Width=8mil|Gap=10mil|Entries=4|*
%AMTHD54*
7,0,0,0.05600,0.03600,0.00800,45*
%
%ADD54THD54*%
%ADD55C,0.03200*%
%ADD56C,0.04400*%
%ADD57C,0.05200*%
%ADD58R,0.03543X0.04724*%
%ADD59R,0.07087X0.03937*%
%ADD60R,0.01102X0.01969*%
%ADD61R,0.02362X0.05512*%
%ADD62R,0.02165X0.01181*%
%ADD63R,0.01969X0.03386*%
%ADD64R,0.02559X0.02559*%
%ADD65R,0.01882X0.01181*%
%ADD66R,0.01575X0.03622*%
%ADD67R,0.05118X0.00984*%
%ADD68O,0.05118X0.00984*%
%ADD69R,0.08661X0.07087*%
%ADD70R,0.09843X0.13780*%
%ADD71R,0.01181X0.03150*%
%ADD72R,0.03642X0.01181*%
%ADD73R,0.03422X0.01181*%
%ADD74C,0.00787*%
%ADD75R,0.20276X0.20276*%
%ADD76O,0.03347X0.01102*%
%ADD77O,0.01102X0.03347*%
%ADD78R,0.01102X0.03347*%
%ADD79R,0.03543X0.06299*%
%ADD80R,0.01969X0.02362*%
%ADD81R,0.02756X0.03543*%
%ADD82R,0.02362X0.01969*%
%ADD83R,0.01969X0.01102*%
%ADD84R,0.01575X0.01575*%
%ADD85C,0.00900*%
%ADD86C,0.00600*%
%ADD87P,0.02895X4X90.0*%
%ADD88C,0.00394*%
%ADD89C,0.00500*%
%ADD90C,0.00984*%
%ADD91C,0.00787*%
%ADD92C,0.00300*%
%ADD93C,0.00421*%
%ADD94C,0.00420*%
%ADD95C,0.00417*%
%ADD96C,0.01466*%
%ADD97R,0.07687X0.04537*%
G04:AMPARAMS|DCode=98|XSize=37.5mil|YSize=72.93mil|CornerRadius=0mil|HoleSize=0mil|Usage=FLASHONLY|Rotation=45.000|XOffset=0mil|YOffset=0mil|HoleType=Round|Shape=Rectangle|*
%AMROTATEDRECTD98*
4,1,4,0.01253,-0.03904,-0.03904,0.01253,-0.01253,0.03904,0.03904,-0.01253,0.01253,-0.03904,0.0*
%
%ADD98ROTATEDRECTD98*%

%ADD99R,0.02254X0.02962*%
%ADD100R,0.04143X0.03356*%
%ADD101R,0.03356X0.02962*%
%ADD102R,0.03356X0.04537*%
%ADD103R,0.08002X0.07214*%
%ADD104O,0.02175X0.06899*%
%ADD105R,0.04931X0.04537*%
%ADD106R,0.02175X0.02175*%
%ADD107R,0.02962X0.02254*%
G04:AMPARAMS|DCode=108|XSize=37.5mil|YSize=72.93mil|CornerRadius=0mil|HoleSize=0mil|Usage=FLASHONLY|Rotation=135.000|XOffset=0mil|YOffset=0mil|HoleType=Round|Shape=Rectangle|*
%AMROTATEDRECTD108*
4,1,4,0.03904,0.01253,-0.01253,-0.03904,-0.03904,-0.01253,0.01253,0.03904,0.03904,0.01253,0.0*
%
%ADD108ROTATEDRECTD108*%

%ADD109R,0.04143X0.02962*%
%ADD110R,0.02962X0.04143*%
%ADD111R,0.04537X0.04931*%
%ADD112C,0.04800*%
%ADD113C,0.06600*%
%ADD114C,0.04537*%
%ADD115R,0.04537X0.04537*%
%ADD116R,0.04143X0.05324*%
%ADD117R,0.07687X0.04537*%
%ADD118R,0.01702X0.02569*%
%ADD119R,0.02962X0.06112*%
%ADD120R,0.02765X0.01781*%
%ADD121R,0.02569X0.03986*%
%ADD122R,0.03159X0.03159*%
%ADD123R,0.02482X0.01781*%
%ADD124R,0.02175X0.04222*%
%ADD125R,0.05718X0.01584*%
%ADD126O,0.05718X0.01584*%
%ADD127R,0.09261X0.07687*%
%ADD128R,0.10443X0.14379*%
%ADD129R,0.01781X0.03750*%
%ADD130R,0.04242X0.01781*%
%ADD131R,0.04022X0.01781*%
%ADD132R,0.20876X0.20876*%
%ADD133O,0.03947X0.01702*%
%ADD134O,0.01702X0.03947*%
%ADD135R,0.01702X0.03947*%
%ADD136R,0.04143X0.06899*%
%ADD137R,0.02569X0.02962*%
%ADD138R,0.03356X0.04143*%
%ADD139R,0.02962X0.02569*%
%ADD140R,0.02569X0.01702*%
%ADD141R,0.02175X0.02175*%
%ADD142C,0.08474*%
G36*
X311939Y164374D02*
X311960Y164373D01*
X311963Y164372D01*
X311965Y164372D01*
X311986Y164367D01*
X312006Y164362D01*
X312009Y164362D01*
X312011Y164361D01*
X312030Y164353D01*
X312050Y164345D01*
X312052Y164344D01*
X312054Y164343D01*
X312073Y164332D01*
X312091Y164321D01*
X312093Y164320D01*
X312095Y164318D01*
X312111Y164304D01*
X312127Y164291D01*
X312129Y164289D01*
X312131Y164288D01*
X312144Y164271D01*
X312159Y164255D01*
X313044Y163074D01*
X313046Y163072D01*
X313047Y163071D01*
X313058Y163052D01*
X313070Y163034D01*
X313071Y163032D01*
X313072Y163030D01*
X313080Y163011D01*
X313088Y162991D01*
X313089Y162989D01*
X313090Y162987D01*
X313095Y162966D01*
X313100Y162945D01*
X313100Y162943D01*
X313101Y162941D01*
X313103Y162920D01*
X313105Y162898D01*
X313104Y162896D01*
X313105Y162894D01*
X313103Y162873D01*
X313102Y162851D01*
X313101Y162849D01*
X313101Y162847D01*
X313096Y162826D01*
X313091Y162805D01*
X313090Y162803D01*
X313090Y162801D01*
X313082Y162781D01*
X313074Y162761D01*
X313073Y162759D01*
X313072Y162757D01*
X313060Y162739D01*
X313050Y162721D01*
X313048Y162719D01*
X313047Y162717D01*
X313033Y162701D01*
X313020Y162684D01*
X313018Y162683D01*
X313016Y162681D01*
X313000Y162667D01*
X312984Y162653D01*
X312982Y162652D01*
X312981Y162650D01*
X312962Y162639D01*
X312944Y162628D01*
X312942Y162627D01*
X312940Y162626D01*
X312921Y162617D01*
X312901Y162609D01*
X312899Y162608D01*
X312897Y162608D01*
X312876Y162602D01*
X312855Y162597D01*
X312853Y162597D01*
X312851Y162596D01*
X312830Y162595D01*
X312808Y162593D01*
X312806Y162593D01*
X312804Y162593D01*
X311032D01*
X310985Y162596D01*
X310939Y162608D01*
X310895Y162626D01*
X310855Y162650D01*
X310819Y162681D01*
X310788Y162717D01*
X310764Y162757D01*
X310746Y162801D01*
X310735Y162847D01*
X310731Y162894D01*
Y164075D01*
X310735Y164122D01*
X310746Y164168D01*
X310764Y164211D01*
X310788Y164252D01*
X310819Y164288D01*
X310855Y164318D01*
X310895Y164343D01*
X310939Y164361D01*
X310985Y164372D01*
X311032Y164376D01*
X311918D01*
X311939Y164374D01*
D02*
G37*
G36*
X316197Y164372D02*
X316243Y164361D01*
X316287Y164343D01*
X316327Y164318D01*
X316363Y164288D01*
X316394Y164252D01*
X316418Y164211D01*
X316436Y164168D01*
X316447Y164122D01*
X316451Y164075D01*
Y162894D01*
X316447Y162847D01*
X316436Y162801D01*
X316418Y162757D01*
X316394Y162717D01*
X316363Y162681D01*
X316327Y162650D01*
X316287Y162626D01*
X316243Y162608D01*
X316197Y162596D01*
X316150Y162593D01*
X314477D01*
X314430Y162596D01*
X314384Y162608D01*
X314340Y162626D01*
X314300Y162650D01*
X314264Y162681D01*
X314233Y162717D01*
X314209Y162757D01*
X314191Y162801D01*
X314180Y162847D01*
X314176Y162894D01*
Y163287D01*
X314180Y163335D01*
X314191Y163380D01*
X314209Y163424D01*
X314233Y163464D01*
X314264Y163500D01*
X315052Y164288D01*
X315087Y164318D01*
X315128Y164343D01*
X315171Y164361D01*
X315217Y164372D01*
X315264Y164376D01*
X316150D01*
X316197Y164372D01*
D02*
G37*
G36*
Y166931D02*
X316243Y166920D01*
X316287Y166902D01*
X316327Y166877D01*
X316363Y166847D01*
X316394Y166811D01*
X316418Y166771D01*
X316436Y166727D01*
X316447Y166681D01*
X316451Y166634D01*
Y165453D01*
X316447Y165406D01*
X316436Y165360D01*
X316418Y165316D01*
X316394Y165276D01*
X316363Y165240D01*
X316327Y165209D01*
X316287Y165185D01*
X316243Y165167D01*
X316197Y165155D01*
X316150Y165152D01*
X315264D01*
X315217Y165155D01*
X315171Y165167D01*
X315128Y165185D01*
X315087Y165209D01*
X315052Y165240D01*
X314264Y166027D01*
X314233Y166063D01*
X314209Y166103D01*
X314191Y166147D01*
X314180Y166193D01*
X314176Y166240D01*
Y166634D01*
X314180Y166681D01*
X314191Y166727D01*
X314209Y166771D01*
X314233Y166811D01*
X314264Y166847D01*
X314300Y166877D01*
X314340Y166902D01*
X314384Y166920D01*
X314430Y166931D01*
X314477Y166935D01*
X316150D01*
X316197Y166931D01*
D02*
G37*
G36*
X312752D02*
X312798Y166920D01*
X312842Y166902D01*
X312882Y166877D01*
X312918Y166847D01*
X312949Y166811D01*
X312973Y166771D01*
X312991Y166727D01*
X313002Y166681D01*
X313006Y166634D01*
Y166240D01*
X313002Y166193D01*
X312991Y166147D01*
X312973Y166103D01*
X312949Y166063D01*
X312918Y166027D01*
X312131Y165240D01*
X312095Y165209D01*
X312054Y165185D01*
X312011Y165167D01*
X311965Y165155D01*
X311918Y165152D01*
X311032D01*
X310985Y165155D01*
X310939Y165167D01*
X310895Y165185D01*
X310855Y165209D01*
X310819Y165240D01*
X310788Y165276D01*
X310764Y165316D01*
X310746Y165360D01*
X310735Y165406D01*
X310731Y165453D01*
Y166634D01*
X310735Y166681D01*
X310746Y166727D01*
X310764Y166771D01*
X310788Y166811D01*
X310819Y166847D01*
X310855Y166877D01*
X310895Y166902D01*
X310939Y166920D01*
X310985Y166931D01*
X311032Y166935D01*
X312705D01*
X312752Y166931D01*
D02*
G37*
D74*
X311623Y163484D02*
D03*
Y166043D02*
D03*
X315560D02*
D03*
Y163386D02*
D03*
D100*
X233202Y126083D02*
D03*
Y120965D02*
D03*
X225722Y123524D02*
D03*
X214075Y177559D02*
D03*
Y182677D02*
D03*
X221555Y180118D02*
D03*
D106*
X315756Y170000D02*
D03*
X310244D02*
D03*
D109*
X198031Y40846D02*
D03*
Y46358D02*
D03*
X316043Y76870D02*
D03*
Y71358D02*
D03*
X250098Y49803D02*
D03*
Y44291D02*
D03*
X205413Y36417D02*
D03*
Y30906D02*
D03*
X223000Y78756D02*
D03*
Y73244D02*
D03*
X296260Y40157D02*
D03*
Y34646D02*
D03*
X294882Y48819D02*
D03*
Y54331D02*
D03*
X242717Y176575D02*
D03*
Y182087D02*
D03*
X210512Y170756D02*
D03*
Y165244D02*
D03*
X240748Y164764D02*
D03*
Y170276D02*
D03*
X227953Y182087D02*
D03*
Y176575D02*
D03*
X235236D02*
D03*
Y182087D02*
D03*
X225689Y111713D02*
D03*
Y117224D02*
D03*
X231791Y170571D02*
D03*
Y165059D02*
D03*
X267028Y20768D02*
D03*
Y15256D02*
D03*
X234449Y157776D02*
D03*
Y152264D02*
D03*
X203346Y114764D02*
D03*
Y120276D02*
D03*
X203543Y93898D02*
D03*
Y99410D02*
D03*
X259941Y40748D02*
D03*
Y35236D02*
D03*
X281988Y68504D02*
D03*
Y62992D02*
D03*
X230709Y18012D02*
D03*
Y12500D02*
D03*
X210827Y114764D02*
D03*
Y120276D02*
D03*
X197244Y140945D02*
D03*
Y135433D02*
D03*
X200000Y82874D02*
D03*
Y77362D02*
D03*
X207087Y77264D02*
D03*
Y82776D02*
D03*
D110*
X179559Y18520D02*
D03*
X174047D02*
D03*
X314231Y154724D02*
D03*
X308719D02*
D03*
X229823Y146850D02*
D03*
X224311D02*
D03*
X224114Y158661D02*
D03*
X218602D02*
D03*
X321063Y88878D02*
D03*
X315551D02*
D03*
X298622Y88976D02*
D03*
X304134D02*
D03*
X285531Y83071D02*
D03*
X280020D02*
D03*
X256398Y190945D02*
D03*
X250886D02*
D03*
X305413D02*
D03*
X299902D02*
D03*
X253740Y62992D02*
D03*
X259252D02*
D03*
X310433Y29626D02*
D03*
X304921D02*
D03*
X310138Y49803D02*
D03*
X304626D02*
D03*
X278150Y17421D02*
D03*
X283661D02*
D03*
X284252Y40059D02*
D03*
X278740D02*
D03*
X296654Y17618D02*
D03*
X291142D02*
D03*
X290453Y26280D02*
D03*
X295965D02*
D03*
X304331Y38500D02*
D03*
X309842D02*
D03*
X308867Y148622D02*
D03*
X314378D02*
D03*
X228051Y135827D02*
D03*
X233563D02*
D03*
X211713Y105807D02*
D03*
X217224D02*
D03*
X206004Y69587D02*
D03*
X200492D02*
D03*
X174390Y32661D02*
D03*
X179901D02*
D03*
D112*
X327628Y176673D02*
D03*
Y164272D02*
D03*
X327628Y157000D02*
D03*
X277362Y204626D02*
D03*
D113*
X329213Y48917D02*
D03*
X328248Y122343D02*
D03*
X329213Y61000D02*
D03*
X328150Y135039D02*
D03*
X296000Y5640D02*
D03*
X285000D02*
D03*
X307087Y5512D02*
D03*
X328420Y110806D02*
D03*
X329331Y37303D02*
D03*
X329213Y25197D02*
D03*
D114*
X185512Y4534D02*
D03*
X190512D02*
D03*
X195512D02*
D03*
X200512D02*
D03*
X205512D02*
D03*
X210512D02*
D03*
X215512D02*
D03*
X220512D02*
D03*
X204409Y203201D02*
D03*
X209409D02*
D03*
X214409D02*
D03*
X219409D02*
D03*
X224410D02*
D03*
X229410D02*
D03*
X234409D02*
D03*
X230512Y4534D02*
D03*
X235512D02*
D03*
X240512D02*
D03*
X245512D02*
D03*
X250512D02*
D03*
X255512D02*
D03*
X309784Y203839D02*
D03*
X304784D02*
D03*
X299783D02*
D03*
D115*
X225512Y4534D02*
D03*
X199409Y203201D02*
D03*
X260512Y4534D02*
D03*
X294783Y203839D02*
D03*
D116*
X256988Y47343D02*
D03*
X263681D02*
D03*
Y56004D02*
D03*
X256988D02*
D03*
D117*
X220669Y15551D02*
D03*
Y25394D02*
D03*
D118*
X314254Y174000D02*
D03*
X312285D02*
D03*
X310317D02*
D03*
X314254Y178724D02*
D03*
X310317D02*
D03*
X310500Y189000D02*
D03*
X312469D02*
D03*
X314437D02*
D03*
X310500Y184276D02*
D03*
X314437D02*
D03*
D119*
X213917Y128642D02*
D03*
X203917D02*
D03*
X218917Y149902D02*
D03*
X213917D02*
D03*
X218917Y128642D02*
D03*
X208917D02*
D03*
X203917Y149902D02*
D03*
X208917D02*
D03*
D120*
X224213Y153740D02*
D03*
Y151772D02*
D03*
X229921Y151772D02*
D03*
Y153740D02*
D03*
D121*
X227067Y152756D02*
D03*
D122*
X311024Y97342D02*
D03*
X319685D02*
D03*
D123*
X298866Y78347D02*
D03*
Y80315D02*
D03*
Y82284D02*
D03*
X303890Y78347D02*
D03*
Y80315D02*
D03*
Y82284D02*
D03*
D124*
X279035Y47146D02*
D03*
X284154D02*
D03*
Y54626D02*
D03*
X281594D02*
D03*
X279035D02*
D03*
X278346Y31890D02*
D03*
X280906D02*
D03*
X283465D02*
D03*
Y24409D02*
D03*
X278346D02*
D03*
D125*
X258957Y99803D02*
D03*
Y117520D02*
D03*
Y137205D02*
D03*
Y156890D02*
D03*
Y176575D02*
D03*
D126*
Y101772D02*
D03*
Y103740D02*
D03*
Y105709D02*
D03*
Y107677D02*
D03*
Y109646D02*
D03*
Y111614D02*
D03*
Y113583D02*
D03*
Y115551D02*
D03*
Y119488D02*
D03*
Y121457D02*
D03*
Y123425D02*
D03*
Y125394D02*
D03*
Y127362D02*
D03*
Y129331D02*
D03*
Y131299D02*
D03*
Y133268D02*
D03*
Y135236D02*
D03*
Y139173D02*
D03*
Y141142D02*
D03*
Y143110D02*
D03*
Y145079D02*
D03*
Y147047D02*
D03*
Y149016D02*
D03*
Y150984D02*
D03*
Y152953D02*
D03*
Y154921D02*
D03*
Y158858D02*
D03*
Y160827D02*
D03*
Y162795D02*
D03*
Y164764D02*
D03*
Y166732D02*
D03*
Y168701D02*
D03*
Y170669D02*
D03*
Y172638D02*
D03*
Y174606D02*
D03*
D127*
X271752Y92323D02*
D03*
Y184055D02*
D03*
D128*
X300295Y138681D02*
D03*
X299803Y66831D02*
D03*
D129*
X230512Y95177D02*
D03*
X228543D02*
D03*
X226575D02*
D03*
X230512Y85138D02*
D03*
X228543D02*
D03*
X226575D02*
D03*
D130*
X233317Y90158D02*
D03*
Y88189D02*
D03*
Y92126D02*
D03*
X223770D02*
D03*
Y88189D02*
D03*
Y90158D02*
D03*
D131*
X223660Y86221D02*
D03*
X233427Y94095D02*
D03*
X223660D02*
D03*
X233427Y86221D02*
D03*
D132*
X228937Y51673D02*
D03*
D133*
X242618Y40846D02*
D03*
Y42815D02*
D03*
Y44783D02*
D03*
Y46752D02*
D03*
Y48720D02*
D03*
Y50689D02*
D03*
Y52658D02*
D03*
Y54626D02*
D03*
Y56595D02*
D03*
Y58563D02*
D03*
Y60532D02*
D03*
Y62500D02*
D03*
X215256D02*
D03*
Y60532D02*
D03*
Y58563D02*
D03*
Y56595D02*
D03*
Y54626D02*
D03*
Y52658D02*
D03*
Y50689D02*
D03*
Y48720D02*
D03*
Y46752D02*
D03*
Y44783D02*
D03*
Y42815D02*
D03*
Y40846D02*
D03*
D134*
X239764Y65354D02*
D03*
X237795D02*
D03*
X235827D02*
D03*
X233858D02*
D03*
X231890D02*
D03*
X229921D02*
D03*
X227953D02*
D03*
X225984D02*
D03*
X224016D02*
D03*
X222047D02*
D03*
X220079D02*
D03*
X218110D02*
D03*
Y37992D02*
D03*
X220079D02*
D03*
X222047D02*
D03*
X224016D02*
D03*
X225984D02*
D03*
X227953D02*
D03*
X229921D02*
D03*
X231890D02*
D03*
X233858D02*
D03*
X235827D02*
D03*
X237795D02*
D03*
D135*
X239764D02*
D03*
D136*
X315453Y124705D02*
D03*
X304035D02*
D03*
X315484Y105610D02*
D03*
X304067D02*
D03*
X315453Y115157D02*
D03*
X304035D02*
D03*
D137*
X225886Y103937D02*
D03*
X229823D02*
D03*
X211417Y30906D02*
D03*
X215354D02*
D03*
X244498Y119000D02*
D03*
X248435D02*
D03*
X248323Y126712D02*
D03*
X244386D02*
D03*
X248323Y134612D02*
D03*
X244386D02*
D03*
X248323Y142412D02*
D03*
X244386D02*
D03*
X244386Y150312D02*
D03*
X248323D02*
D03*
D138*
X219882Y164469D02*
D03*
X222441Y171949D02*
D03*
X217323D02*
D03*
D139*
X239961Y151969D02*
D03*
Y155905D02*
D03*
X240354Y120643D02*
D03*
Y124580D02*
D03*
Y128543D02*
D03*
Y132480D02*
D03*
Y136443D02*
D03*
Y140380D02*
D03*
Y144343D02*
D03*
Y148280D02*
D03*
X233202Y115551D02*
D03*
Y111614D02*
D03*
D140*
X313779Y130512D02*
D03*
Y134449D02*
D03*
X318504Y130512D02*
D03*
Y132480D02*
D03*
Y134449D02*
D03*
D141*
X309784Y139756D02*
D03*
Y134244D02*
D03*
D142*
X188878Y32661D02*
D03*
Y18520D02*
D03*
M02*
