%FSLAX25Y25*%
%MOIN*%
G70*
G01*
G75*
G04 Layer_Physical_Order=4*
G04 Layer_Color=16711680*
%ADD10C,0.00866*%
%ADD11R,0.07087X0.03937*%
G04:AMPARAMS|DCode=12|XSize=31.5mil|YSize=66.93mil|CornerRadius=0mil|HoleSize=0mil|Usage=FLASHONLY|Rotation=45.000|XOffset=0mil|YOffset=0mil|HoleType=Round|Shape=Rectangle|*
%AMROTATEDRECTD12*
4,1,4,0.01253,-0.03480,-0.03480,0.01253,-0.01253,0.03480,0.03480,-0.01253,0.01253,-0.03480,0.0*
%
%ADD12ROTATEDRECTD12*%

%ADD13R,0.01654X0.02362*%
%ADD14R,0.03543X0.02756*%
%ADD15R,0.02756X0.02362*%
%ADD16R,0.02756X0.03937*%
%ADD17R,0.07402X0.06614*%
%ADD18O,0.01575X0.06299*%
%ADD19R,0.04331X0.03937*%
%ADD20R,0.01575X0.01575*%
%ADD21R,0.02362X0.01654*%
G04:AMPARAMS|DCode=22|XSize=31.5mil|YSize=66.93mil|CornerRadius=0mil|HoleSize=0mil|Usage=FLASHONLY|Rotation=135.000|XOffset=0mil|YOffset=0mil|HoleType=Round|Shape=Rectangle|*
%AMROTATEDRECTD22*
4,1,4,0.03480,0.01253,-0.01253,-0.03480,-0.03480,-0.01253,0.01253,0.03480,0.03480,0.01253,0.0*
%
%ADD22ROTATEDRECTD22*%

%ADD23R,0.03543X0.02362*%
%ADD24R,0.02362X0.03543*%
%ADD25R,0.03937X0.04331*%
%ADD26C,0.02000*%
%ADD27C,0.01200*%
%ADD28C,0.01000*%
%ADD29C,0.02500*%
%ADD30C,0.05000*%
%ADD31C,0.00800*%
%ADD32C,0.03000*%
%ADD33C,0.01500*%
%ADD34C,0.04200*%
%ADD35C,0.06000*%
%ADD36C,0.07874*%
%ADD37C,0.03937*%
%ADD38R,0.03937X0.03937*%
%ADD39C,0.02600*%
%ADD40C,0.03000*%
%ADD41C,0.02400*%
%ADD42C,0.03400*%
%ADD43C,0.05000*%
%ADD44C,0.04000*%
%ADD45C,0.04900*%
G04:AMPARAMS|DCode=46|XSize=65mil|YSize=65mil|CornerRadius=0mil|HoleSize=0mil|Usage=FLASHONLY|Rotation=0.000|XOffset=0mil|YOffset=0mil|HoleType=Round|Shape=Relief|Width=8mil|Gap=10mil|Entries=4|*
%AMTHD46*
7,0,0,0.06500,0.04500,0.00800,45*
%
%ADD46THD46*%
%ADD47C,0.06400*%
%ADD48C,0.08306*%
%ADD49C,0.04762*%
G04:AMPARAMS|DCode=50|XSize=63.622mil|YSize=63.622mil|CornerRadius=0mil|HoleSize=0mil|Usage=FLASHONLY|Rotation=0.000|XOffset=0mil|YOffset=0mil|HoleType=Round|Shape=Relief|Width=8mil|Gap=10mil|Entries=4|*
%AMTHD50*
7,0,0,0.06362,0.04362,0.00800,45*
%
%ADD50THD50*%
G04:AMPARAMS|DCode=51|XSize=80mil|YSize=80mil|CornerRadius=0mil|HoleSize=0mil|Usage=FLASHONLY|Rotation=0.000|XOffset=0mil|YOffset=0mil|HoleType=Round|Shape=Relief|Width=8mil|Gap=10mil|Entries=4|*
%AMTHD51*
7,0,0,0.08000,0.06000,0.00800,45*
%
%ADD51THD51*%
G04:AMPARAMS|DCode=52|XSize=50mil|YSize=50mil|CornerRadius=0mil|HoleSize=0mil|Usage=FLASHONLY|Rotation=0.000|XOffset=0mil|YOffset=0mil|HoleType=Round|Shape=Relief|Width=8mil|Gap=10mil|Entries=4|*
%AMTHD52*
7,0,0,0.05000,0.03000,0.00800,45*
%
%ADD52THD52*%
%ADD53C,0.04000*%
G04:AMPARAMS|DCode=54|XSize=56mil|YSize=56mil|CornerRadius=0mil|HoleSize=0mil|Usage=FLASHONLY|Rotation=0.000|XOffset=0mil|YOffset=0mil|HoleType=Round|Shape=Relief|Width=8mil|Gap=10mil|Entries=4|*
%AMTHD54*
7,0,0,0.05600,0.03600,0.00800,45*
%
%ADD54THD54*%
%ADD55C,0.03200*%
%ADD56C,0.04400*%
%ADD57C,0.05200*%
%ADD58R,0.03543X0.04724*%
%ADD59R,0.07087X0.03937*%
%ADD60R,0.01102X0.01969*%
%ADD61R,0.02362X0.05512*%
%ADD62R,0.02165X0.01181*%
%ADD63R,0.01969X0.03386*%
%ADD64R,0.02559X0.02559*%
%ADD65R,0.01882X0.01181*%
%ADD66R,0.01575X0.03622*%
%ADD67R,0.05118X0.00984*%
%ADD68O,0.05118X0.00984*%
%ADD69R,0.08661X0.07087*%
%ADD70R,0.09843X0.13780*%
%ADD71R,0.01181X0.03150*%
%ADD72R,0.03642X0.01181*%
%ADD73R,0.03422X0.01181*%
%ADD74C,0.00787*%
%ADD75R,0.20276X0.20276*%
%ADD76O,0.03347X0.01102*%
%ADD77O,0.01102X0.03347*%
%ADD78R,0.01102X0.03347*%
%ADD79R,0.03543X0.06299*%
%ADD80R,0.01969X0.02362*%
%ADD81R,0.02756X0.03543*%
%ADD82R,0.02362X0.01969*%
%ADD83R,0.01969X0.01102*%
%ADD84R,0.01575X0.01575*%
%ADD85C,0.00900*%
%ADD86C,0.00600*%
%ADD87P,0.02895X4X90.0*%
G36*
X316150Y162894D02*
X314477D01*
Y163287D01*
X315264Y164075D01*
X316150D01*
Y162894D01*
D02*
G37*
G36*
X312804D02*
X311032D01*
Y164075D01*
X311918D01*
X312804Y162894D01*
D02*
G37*
G36*
X316150Y165453D02*
X315264D01*
X314477Y166240D01*
Y166634D01*
X316150D01*
Y165453D01*
D02*
G37*
G36*
X312705Y166240D02*
X311918Y165453D01*
X311032D01*
Y166634D01*
X312705D01*
Y166240D01*
D02*
G37*
D14*
X233202Y126083D02*
D03*
Y120965D02*
D03*
X225722Y123524D02*
D03*
X214075Y177559D02*
D03*
Y182677D02*
D03*
X221555Y180118D02*
D03*
D20*
X315756Y170000D02*
D03*
X310244D02*
D03*
D23*
X198031Y40846D02*
D03*
Y46358D02*
D03*
X316043Y76870D02*
D03*
Y71358D02*
D03*
X250098Y49803D02*
D03*
Y44291D02*
D03*
X205413Y36417D02*
D03*
Y30906D02*
D03*
X223000Y78756D02*
D03*
Y73244D02*
D03*
X296260Y40157D02*
D03*
Y34646D02*
D03*
X294882Y48819D02*
D03*
Y54331D02*
D03*
X242717Y176575D02*
D03*
Y182087D02*
D03*
X210512Y170756D02*
D03*
Y165244D02*
D03*
X240748Y164764D02*
D03*
Y170276D02*
D03*
X227953Y182087D02*
D03*
Y176575D02*
D03*
X235236D02*
D03*
Y182087D02*
D03*
X225689Y111713D02*
D03*
Y117224D02*
D03*
X231791Y170571D02*
D03*
Y165059D02*
D03*
X267028Y20768D02*
D03*
Y15256D02*
D03*
X234449Y157776D02*
D03*
Y152264D02*
D03*
X203346Y114764D02*
D03*
Y120276D02*
D03*
X203543Y93898D02*
D03*
Y99410D02*
D03*
X259941Y40748D02*
D03*
Y35236D02*
D03*
X281988Y68504D02*
D03*
Y62992D02*
D03*
X230709Y18012D02*
D03*
Y12500D02*
D03*
X210827Y114764D02*
D03*
Y120276D02*
D03*
X197244Y140945D02*
D03*
Y135433D02*
D03*
X200000Y82874D02*
D03*
Y77362D02*
D03*
X207087Y77264D02*
D03*
Y82776D02*
D03*
D24*
X179559Y18520D02*
D03*
X174047D02*
D03*
X314231Y154724D02*
D03*
X308719D02*
D03*
X229823Y146850D02*
D03*
X224311D02*
D03*
X224114Y158661D02*
D03*
X218602D02*
D03*
X321063Y88878D02*
D03*
X315551D02*
D03*
X298622Y88976D02*
D03*
X304134D02*
D03*
X285531Y83071D02*
D03*
X280020D02*
D03*
X256398Y190945D02*
D03*
X250886D02*
D03*
X305413D02*
D03*
X299902D02*
D03*
X253740Y62992D02*
D03*
X259252D02*
D03*
X310433Y29626D02*
D03*
X304921D02*
D03*
X310138Y49803D02*
D03*
X304626D02*
D03*
X278150Y17421D02*
D03*
X283661D02*
D03*
X284252Y40059D02*
D03*
X278740D02*
D03*
X296654Y17618D02*
D03*
X291142D02*
D03*
X290453Y26280D02*
D03*
X295965D02*
D03*
X304331Y38500D02*
D03*
X309842D02*
D03*
X308867Y148622D02*
D03*
X314378D02*
D03*
X228051Y135827D02*
D03*
X233563D02*
D03*
X211713Y105807D02*
D03*
X217224D02*
D03*
X206004Y69587D02*
D03*
X200492D02*
D03*
X174390Y32661D02*
D03*
X179901D02*
D03*
D26*
X265408Y68504D02*
X274414Y59498D01*
X256693Y68504D02*
X265408D01*
X308867Y148622D02*
Y154577D01*
Y146133D02*
Y148622D01*
X308719Y154724D02*
X308867Y154577D01*
Y146133D02*
X312795Y142205D01*
Y140847D02*
Y142205D01*
X328110Y135000D02*
X328150Y135039D01*
X322346Y135000D02*
X328110D01*
X305413Y178724D02*
Y190945D01*
X224410Y189362D02*
Y203201D01*
X220743Y185696D02*
X224410Y189362D01*
X209943Y185696D02*
X220743D01*
X207000Y182753D02*
X209943Y185696D01*
X207000Y156642D02*
Y182753D01*
X279035Y54626D02*
Y54876D01*
X274414Y59498D02*
X279035Y54876D01*
X256102Y69095D02*
X256693Y68504D01*
X214075Y182677D02*
X214494Y183096D01*
X210512Y170756D02*
Y180598D01*
X212591Y182677D02*
X214075D01*
X210512Y180598D02*
X212591Y182677D01*
X280600Y9614D02*
Y11435D01*
X278086Y13950D02*
X280600Y11435D01*
X276264Y13950D02*
X278086D01*
X207000Y156642D02*
X208917Y154724D01*
Y149902D02*
Y154724D01*
X285236Y41043D02*
X290748D01*
X315484Y115126D02*
Y119801D01*
Y103839D02*
X315681Y103642D01*
X319783D01*
X319685Y97342D02*
X319783Y97441D01*
Y103642D01*
X305413Y198274D02*
X309784Y202644D01*
X305413Y192184D02*
Y198274D01*
X284252Y40059D02*
X285236Y41043D01*
X295965Y21161D02*
Y26280D01*
Y18307D02*
Y21161D01*
X299902Y30217D02*
X306791D01*
X283661Y17421D02*
X283858Y17618D01*
X291142D01*
X295965Y26280D02*
Y34350D01*
Y18307D02*
X296654Y17618D01*
X295965Y26280D02*
X299902Y30217D01*
X233202Y126083D02*
X233563Y126444D01*
X227264Y130610D02*
X233169D01*
X233563Y131004D01*
Y126444D02*
Y131004D01*
Y135827D01*
X273524Y16690D02*
Y27067D01*
X278346Y31890D01*
X250886Y190945D02*
Y191926D01*
X260151Y201191D01*
X309784Y202644D02*
Y203839D01*
X284574Y5640D02*
X285000D01*
X296260Y12500D02*
X304098D01*
X306890Y15292D01*
X291142Y17618D02*
X295785Y12975D01*
X296260Y12500D01*
X306890Y15292D02*
Y25098D01*
X280600Y9614D02*
X284574Y5640D01*
X273284Y9000D02*
X276000D01*
X273524Y16690D02*
X276264Y13950D01*
X267028Y15256D02*
X273284Y9000D01*
D27*
X235642Y4264D02*
Y15000D01*
X230709Y18012D02*
X232630D01*
X235642Y15000D01*
X235512Y4134D02*
X235642Y4264D01*
X321000Y164118D02*
X321732Y163386D01*
X304980Y163484D02*
X311623D01*
X299500Y168965D02*
X304980Y163484D01*
X299500Y168965D02*
Y171207D01*
X305413Y177121D01*
Y178724D01*
X306953Y166043D02*
X311623D01*
X305673Y167323D02*
X306953Y166043D01*
X302000Y170115D02*
X310244D01*
Y170000D02*
Y170115D01*
X311603Y170000D02*
X315560Y166043D01*
X310244Y170000D02*
X311603D01*
X314254Y171502D02*
X315756Y170000D01*
X314254Y171502D02*
Y174000D01*
X315560Y163386D02*
X321732D01*
X328110Y135000D02*
X328189D01*
X314272Y150591D02*
Y157319D01*
X315953Y159000D01*
X311622D02*
Y159703D01*
X202480Y183753D02*
X211727Y193000D01*
X221000D01*
X214075Y182677D02*
X222441Y174311D01*
X227209Y9000D02*
X230709Y12500D01*
X223047Y9000D02*
X227209D01*
X220512Y6465D02*
X223047Y9000D01*
X220318Y4964D02*
X220512Y5158D01*
Y6465D01*
Y4534D02*
Y5158D01*
X224197Y11500D02*
X230709Y18012D01*
X217483Y11500D02*
X224197D01*
X195000Y30282D02*
X220318Y4964D01*
X291888Y83604D02*
X295177Y80315D01*
X286278Y83604D02*
X291888D01*
X285531Y84350D02*
X286278Y83604D01*
X189328Y42484D02*
X195000Y36812D01*
Y30282D02*
Y36812D01*
X215354Y13629D02*
Y24000D01*
Y13629D02*
X217483Y11500D01*
X202480Y156783D02*
Y183753D01*
X194015Y148318D02*
X202480Y156783D01*
X194015Y50990D02*
Y148318D01*
X222441Y171949D02*
Y174311D01*
X189328Y46302D02*
X194015Y50990D01*
X189328Y42484D02*
Y46302D01*
X304035Y105642D02*
Y115157D01*
Y105642D02*
X304067Y105610D01*
X304500Y106254D02*
X304588Y106160D01*
X303619Y105128D02*
X304588Y106160D01*
X303619Y105128D02*
X311000Y97259D01*
X320799Y88878D01*
X321063D01*
X328150Y135039D02*
X328189Y135000D01*
X280906Y31890D02*
Y35039D01*
X284252Y38386D01*
Y40059D01*
X281398Y54429D02*
X281594Y54626D01*
X281398Y42913D02*
Y54429D01*
X304584Y39764D02*
Y48819D01*
X315059Y88386D02*
X315551Y88878D01*
X304724Y88386D02*
X315059D01*
X304134Y88976D02*
X304724Y88386D01*
X237205Y157874D02*
X239469Y160138D01*
X258957Y158858D02*
Y160827D01*
X252165Y159449D02*
X253543Y160827D01*
X258957D01*
X248544Y159449D02*
X252165D01*
X247855Y160138D02*
X248544Y159449D01*
X295965Y34350D02*
X296260Y34646D01*
X284154Y47146D02*
X291732D01*
X296260Y42618D01*
Y40157D02*
Y42618D01*
X294587Y54626D02*
X294882Y54331D01*
X284154Y54626D02*
X294587D01*
X281988Y68504D02*
Y73340D01*
X295177Y80315D02*
X298228D01*
X273130Y47146D02*
Y56398D01*
X229921Y153740D02*
X230076Y153894D01*
Y157874D01*
X237205D01*
X224311Y146850D02*
Y151673D01*
X224213Y151772D02*
X224311Y151673D01*
X208917Y136516D02*
X213917Y141516D01*
X245571Y65354D02*
X252854Y72638D01*
X266634D01*
X239764Y65354D02*
X245571D01*
X266634Y72638D02*
X276969Y62303D01*
X310138Y49803D02*
X317224D01*
X319390Y51968D01*
X299803Y60138D02*
Y66831D01*
Y60138D02*
X310138Y49803D01*
X298866Y67768D02*
Y78347D01*
Y67768D02*
X299803Y66831D01*
X280020Y81988D02*
Y83071D01*
X211713Y105807D02*
Y113878D01*
X210827Y114764D02*
X211713Y113878D01*
X224311Y140469D02*
Y146850D01*
X192028Y43602D02*
X196063D01*
X198031Y41634D01*
X304035Y115157D02*
Y124705D01*
X240512Y4134D02*
X241031D01*
X198031Y33028D02*
Y41634D01*
X259941Y40748D02*
X260531Y41339D01*
X267323D01*
X273130Y47146D01*
X198031Y33028D02*
X207060Y24000D01*
X215354D01*
X262000Y15000D02*
Y15740D01*
X267028Y20768D01*
X204528Y105807D02*
X211713D01*
X199902Y111500D02*
X200083D01*
X203346Y114764D01*
X217815Y80216D02*
X221539D01*
X223000Y78756D01*
X215354Y24000D02*
Y30906D01*
X281398Y42913D02*
X284252Y40059D01*
X289548Y77064D02*
X290831Y78347D01*
X298866D01*
X284944Y77064D02*
X289548D01*
X280020Y81988D02*
X284944Y77064D01*
X276969Y78360D02*
X281988Y73340D01*
X276969Y78360D02*
Y84811D01*
X284658Y92500D01*
X300610D01*
X304134Y88976D01*
X283465Y28846D02*
Y31890D01*
X281377Y26759D02*
X283465Y28846D01*
X281377Y26618D02*
Y26759D01*
X281265Y26505D02*
X281377Y26618D01*
X281265Y26505D02*
X281377Y26392D01*
Y22060D02*
X282276Y21161D01*
X281377Y22060D02*
Y26392D01*
X282276Y21161D02*
X295965D01*
X224114Y158661D02*
X224902Y157874D01*
X230076D01*
X221638Y137795D02*
X224311Y140469D01*
X304035Y105642D02*
X304500Y106254D01*
X239469Y160138D02*
X247855D01*
X250098Y184744D02*
X256299Y190945D01*
X256398D01*
X311705Y139756D02*
X312795Y140847D01*
X309784Y139756D02*
X311705D01*
D28*
X305413Y178724D02*
X310317D01*
X200492Y57973D02*
Y69587D01*
X197028Y55972D02*
Y79040D01*
Y55972D02*
X200000Y53000D01*
X197028Y79040D02*
X197731Y79743D01*
X211409Y99410D02*
X213000Y101000D01*
X203543Y99410D02*
X211409D01*
X217399Y90076D02*
X223147D01*
X210098Y82776D02*
X217399Y90076D01*
X207087Y82776D02*
X210098D01*
X207441Y90000D02*
X213000D01*
X216240Y86417D02*
X223425D01*
X209823Y80000D02*
X216240Y86417D01*
X203543Y93898D02*
X207441Y90000D01*
X205212Y80000D02*
X209823D01*
X214469Y167323D02*
X217323Y170177D01*
X266369Y24565D02*
X267000Y25197D01*
X237795Y35925D02*
X249155Y24565D01*
X266369D01*
X285531Y84531D02*
X289000Y88000D01*
X285531Y84350D02*
Y84531D01*
X310317Y177091D02*
X312285Y175123D01*
Y174000D02*
Y175123D01*
X306098Y82284D02*
X307283Y81098D01*
X303890Y82284D02*
X306098D01*
X307283Y81098D02*
Y85433D01*
X311511Y76870D02*
X316043D01*
X307283Y81098D02*
X311511Y76870D01*
X278400Y5685D02*
Y10100D01*
X276650Y11850D02*
X278400Y10100D01*
X274434Y11850D02*
X276650D01*
X282030Y14550D02*
X291732Y4847D01*
X282025Y14550D02*
X282030D01*
X281380Y15194D02*
X282025Y14550D01*
X281380Y15194D02*
Y15199D01*
X279779Y16800D02*
X281380Y15199D01*
X278150Y16800D02*
X279779D01*
X223000Y78756D02*
X225872Y75884D01*
Y71607D02*
Y75884D01*
X224016Y69751D02*
X225872Y71607D01*
X224016Y65354D02*
Y69751D01*
X268000Y85182D02*
X270398Y87580D01*
X207640Y156002D02*
X208917Y154724D01*
X310317Y177091D02*
Y178724D01*
X312469Y187074D02*
Y189000D01*
Y185398D02*
Y187074D01*
Y185398D02*
X313591Y184276D01*
X306073Y186400D02*
X311795D01*
X313591Y184276D02*
X314437D01*
X305673Y186000D02*
X306073Y186400D01*
X311795D02*
X312469Y187074D01*
X211000Y76234D02*
Y77634D01*
X208227Y73460D02*
X211000Y76234D01*
X208227Y71810D02*
Y73460D01*
X206004Y69587D02*
X208227Y71810D01*
X254429Y27165D02*
Y29724D01*
X259941Y35236D01*
X209887Y39567D02*
X210028D01*
X209500D02*
X209887D01*
X206988D02*
X209500D01*
X250512Y4134D02*
Y9626D01*
X310500Y200074D02*
X312952Y202526D01*
X310500Y188000D02*
Y200074D01*
X294482Y37517D02*
X304833D01*
X304134Y38217D02*
Y39567D01*
X304331Y38500D02*
X307202Y35628D01*
X327656D01*
X329331Y37303D01*
X271000Y15283D02*
X274434Y11850D01*
X271000Y15283D02*
Y37992D01*
X276673D01*
X258047D02*
X271000D01*
X199409Y47146D02*
X206988Y39567D01*
X198031Y47146D02*
X199409D01*
X235572Y28000D02*
X236500D01*
X231890Y28248D02*
Y37992D01*
X229921Y27039D02*
Y37992D01*
X227953Y23720D02*
Y37992D01*
X209887Y39567D02*
X213135Y42815D01*
X210028Y39567D02*
X213059Y42598D01*
X233858Y29713D02*
X235572Y28000D01*
X233858Y29713D02*
Y37992D01*
X252658Y6988D02*
X255512Y4134D01*
X281620Y92620D02*
Y191857D01*
X285342Y195579D02*
X296819D01*
X281620Y191857D02*
X285342Y195579D01*
X283465Y24409D02*
X285335Y26280D01*
X290453D01*
X278150Y24213D02*
X278346Y24409D01*
X278150Y17421D02*
Y24213D01*
X278740Y46850D02*
X279035Y47146D01*
X298228Y80315D02*
X298866D01*
X285531Y83071D02*
X286065Y83604D01*
X310878Y71358D02*
X316043D01*
X303890Y78347D02*
X310878Y71358D01*
X303890Y78347D02*
Y80315D01*
X298622Y82528D02*
Y88976D01*
Y82528D02*
X298866Y82284D01*
X214075Y177559D02*
X217323Y174311D01*
Y171949D02*
Y174311D01*
X200000Y82874D02*
X202480D01*
X285531Y83071D02*
Y84350D01*
X278740Y40059D02*
Y46850D01*
X242618Y42815D02*
X246654D01*
X239764Y37992D02*
X244390Y33366D01*
X213917Y141516D02*
Y149902D01*
X208917Y128642D02*
Y136516D01*
X203917Y128642D02*
X208917D01*
X203346Y128071D02*
X203917Y128642D01*
X203346Y120276D02*
Y128071D01*
Y120276D02*
X210827D01*
X197244Y143228D02*
X203917Y149902D01*
X197244Y140945D02*
Y143228D01*
X218917Y111004D02*
Y128642D01*
X217323Y170177D02*
Y171949D01*
X277264Y67716D02*
X281988Y62992D01*
X277264Y67716D02*
Y71161D01*
X226532Y84252D02*
Y85335D01*
X217618Y84252D02*
X226532D01*
X230709Y18012D02*
Y20965D01*
X227953Y23720D02*
X230709Y20965D01*
X310433Y28642D02*
Y29626D01*
X306890Y25098D02*
X310433Y28642D01*
X246654Y42815D02*
X249114Y40354D01*
X220079Y35630D02*
Y37992D01*
X215354Y30906D02*
X220079Y35630D01*
X215039Y42598D02*
X215256Y42815D01*
X290453Y26280D02*
X292500Y28327D01*
Y35536D01*
X294482Y37517D01*
X304134Y38217D02*
X304833Y37517D01*
X249114Y40354D02*
X249260Y40500D01*
X252000D01*
X270398Y87580D02*
X276580D01*
X237795Y35925D02*
Y37992D01*
X235827Y34542D02*
Y37992D01*
Y34542D02*
X252658Y17711D01*
Y6988D02*
Y17711D01*
X244390Y33366D02*
X253421D01*
X258047Y37992D01*
X276673D02*
X278740Y40059D01*
X282646Y1440D02*
X303015D01*
X307087Y5512D01*
X291732Y4847D02*
X296000D01*
X218917Y111004D02*
X221991Y107930D01*
X236572Y105709D02*
X238254D01*
X234350Y107930D02*
X236572Y105709D01*
X221991Y107930D02*
X234350D01*
X211000Y77634D02*
X217618Y84252D01*
X202480Y82874D02*
X204115Y81239D01*
Y81098D02*
Y81239D01*
Y81098D02*
X205212Y80000D01*
X199902Y73819D02*
Y77264D01*
X204748Y77264D02*
X207087D01*
X202269Y79743D02*
X204748Y77264D01*
X197731Y79743D02*
X202269D01*
X213059Y42598D02*
X215039D01*
X213135Y42815D02*
X215256D01*
X231890Y28248D02*
X250512Y9626D01*
X240512Y4134D02*
Y16449D01*
X229921Y27039D02*
X240512Y16449D01*
X278150Y16800D02*
Y17421D01*
X278400Y5685D02*
X282646Y1440D01*
X305673Y186000D02*
Y190685D01*
X305413Y190945D02*
X305673Y190685D01*
X312952Y202526D02*
Y205151D01*
X276580Y87580D02*
X281620Y92620D01*
X273139Y174303D02*
X278346Y179510D01*
Y193109D01*
X308464Y207000D02*
X308471Y207007D01*
X311096D01*
X298464Y207000D02*
X298471Y207007D01*
X301096D01*
X301103Y207000D01*
X297249Y207007D02*
X297256Y207000D01*
X298464D01*
X301103D02*
X303464D01*
X303471Y207007D01*
X306096D01*
X306103Y207000D01*
X308464D01*
X292244Y207007D02*
X297249D01*
X278346Y193109D02*
X292244Y207007D01*
X311096D02*
X312952Y205151D01*
X255807Y57185D02*
X256988Y56004D01*
X255807Y57185D02*
Y60925D01*
X253740Y62992D02*
X255807Y60925D01*
X231890Y54626D02*
X242618D01*
X228937Y51673D02*
X231890Y54626D01*
D29*
X321000Y136346D02*
Y164118D01*
Y136346D02*
X322346Y135000D01*
Y164000D02*
Y188111D01*
Y130202D02*
Y135000D01*
X316457Y194000D02*
X322346Y188111D01*
X318587Y126444D02*
X322346Y130202D01*
X247441Y182087D02*
X250098Y184744D01*
X242717Y182087D02*
X247441D01*
X235236D02*
X242717D01*
X227953D02*
X235236D01*
X313787Y194000D02*
X316457D01*
X315453Y126444D02*
X318587D01*
X315453Y124705D02*
Y126444D01*
Y115157D02*
Y124705D01*
X315484Y119801D02*
X320563D01*
X315484Y105610D02*
Y115126D01*
Y103839D02*
Y105610D01*
D30*
X137491Y3500D02*
X143491D01*
X139803Y45606D02*
Y53835D01*
X170391Y39416D02*
X174390Y35417D01*
Y32661D02*
Y35417D01*
X159028Y3500D02*
X174047Y18520D01*
X143491Y3500D02*
X159028D01*
X181315Y18520D02*
X188878D01*
X27209Y3500D02*
X137538D01*
X187951Y19446D02*
X188878Y18520D01*
X3500Y27209D02*
X27209Y3500D01*
X3500Y27209D02*
Y181299D01*
X27362Y205161D01*
X143244D01*
X162303Y186102D01*
X150205Y11122D02*
X162303Y23221D01*
X30020Y11122D02*
X150205D01*
X30020D02*
Y11319D01*
X11000Y30339D02*
X30020Y11319D01*
X11000Y30339D02*
Y178126D01*
X30535Y197661D01*
X139204D01*
X154803Y182062D01*
X146728Y18500D02*
X154803Y26575D01*
X33500Y18500D02*
X146728D01*
X18500Y33500D02*
X33500Y18500D01*
X18500Y33500D02*
Y175161D01*
X33500Y190161D01*
X136460D01*
X147303Y179318D01*
X143618Y26000D02*
X147303Y29685D01*
X37106Y26000D02*
X143618D01*
X26000Y37106D02*
X37106Y26000D01*
X26000Y37106D02*
Y171453D01*
X37209Y182661D01*
X132890D01*
X139803Y175748D01*
Y53835D02*
Y175748D01*
X154803Y26575D02*
Y182062D01*
X147303Y29685D02*
Y179318D01*
X162303Y23221D02*
Y186102D01*
D31*
X262894Y48327D02*
Y48954D01*
X258919Y62992D02*
X259252D01*
X259677Y52000D02*
X263681Y56004D01*
X262894Y54393D02*
Y55020D01*
X309784Y134213D02*
X311080Y132916D01*
X309784Y134213D02*
Y134244D01*
X317331Y138000D02*
X317421D01*
X313779Y134449D02*
X317331Y138000D01*
X310500Y182585D02*
X314254Y178831D01*
X204823Y57776D02*
X205496Y57103D01*
X203346Y62646D02*
X207490Y58503D01*
X209776D01*
X209500Y68500D02*
X212583Y65417D01*
Y61857D02*
Y65417D01*
X197244Y113535D02*
Y135433D01*
X216090Y146582D02*
X216198Y146690D01*
X216090Y139082D02*
X220527Y134646D01*
X216090Y139082D02*
Y146582D01*
X218590Y143000D02*
X222030Y146439D01*
X214665Y129390D02*
Y135925D01*
X229921Y65354D02*
Y67681D01*
X239600Y100427D02*
X242913Y103740D01*
X239600Y75245D02*
Y100427D01*
X194015Y50990D02*
X198282D01*
X199764Y49508D01*
X196400Y112691D02*
X197244Y113535D01*
X196400Y96710D02*
Y112691D01*
Y96710D02*
X200672Y92439D01*
X227854Y151969D02*
X234449D01*
Y152264D01*
Y150079D02*
Y151969D01*
Y150079D02*
X235906Y148622D01*
X233563Y115551D02*
Y120604D01*
Y115551D02*
X235713D01*
X233202D02*
X233563D01*
X235713D02*
X236500Y114764D01*
X263500Y85500D02*
Y97000D01*
X270000Y103500D01*
X314754Y125404D02*
Y130512D01*
X228500Y81583D02*
Y85335D01*
X312381Y132898D02*
X315178D01*
X312363Y132916D02*
X312381Y132898D01*
X315178D02*
X315764Y133483D01*
X315758Y131498D02*
X316740Y132480D01*
X315739Y131498D02*
X315758D01*
X314754Y130512D02*
X315739Y131498D01*
X315764Y133502D02*
X316142Y133880D01*
X315764Y133483D02*
Y133502D01*
X316161Y133880D02*
X316729Y134449D01*
X316142Y133880D02*
X316161D01*
X316740Y132480D02*
X318504D01*
X313779Y130512D02*
X314754D01*
X311080Y132916D02*
X312363D01*
X316729Y134449D02*
X318504D01*
X216971Y68904D02*
X218110Y67764D01*
X214557Y71317D02*
X216971Y68904D01*
X218110Y65354D02*
Y67764D01*
X210827Y71512D02*
X215256Y67083D01*
X210827Y71512D02*
Y72146D01*
X215256Y62500D02*
Y67083D01*
X209176Y64500D02*
X211000Y62676D01*
X209776Y58503D02*
X211684Y56595D01*
X209055Y57103D02*
X210945Y55213D01*
X205496Y57103D02*
X209055D01*
X207223Y54803D02*
X208496D01*
X205728Y51772D02*
X208167D01*
X209250Y50689D01*
X228937Y72342D02*
Y76968D01*
X225984Y69390D02*
X228937Y72342D01*
X225984Y65354D02*
Y69390D01*
X219054Y76294D02*
X220079Y75269D01*
Y65354D02*
Y75269D01*
X235827Y67441D02*
X243287Y74902D01*
X245281D01*
X235827Y65354D02*
Y67441D01*
X243806Y77400D02*
X243813D01*
X233858Y67452D02*
X243806Y77400D01*
X233858Y65354D02*
Y67452D01*
X243813Y77400D02*
X246161Y79748D01*
Y91535D01*
X231890Y67535D02*
X239600Y75245D01*
X235080Y72840D02*
Y75770D01*
X229921Y67681D02*
X235080Y72840D01*
X231890Y65354D02*
Y67535D01*
X235080Y75770D02*
X237000Y77690D01*
X270000Y162854D02*
X280020Y172874D01*
X270000Y103500D02*
Y162854D01*
X280020Y172874D02*
Y192520D01*
X211000Y60397D02*
Y62676D01*
Y60397D02*
X212834Y58563D01*
X212583Y61857D02*
X213909Y60532D01*
X203346Y62646D02*
Y73524D01*
X208496Y54803D02*
X210641Y52658D01*
X208000Y45000D02*
X208591D01*
X206923Y42400D02*
X210457D01*
X199815Y49508D02*
X206923Y42400D01*
X210827Y36417D02*
X215256Y40846D01*
X205413Y36417D02*
X210827D01*
X211532Y54626D02*
X215256D01*
X211063Y55094D02*
X211532Y54626D01*
X210945Y55094D02*
X211063D01*
X210945D02*
Y55213D01*
X211684Y56595D02*
X215256D01*
X212834Y58563D02*
X215256D01*
X208045Y48500D02*
X208545Y49000D01*
X225984Y20866D02*
Y37992D01*
X210457Y42400D02*
X212840Y44783D01*
X280020Y192520D02*
X287000Y199500D01*
X300000D01*
X237402Y167028D02*
X237500D01*
X240748Y170276D01*
X239961D02*
X240748D01*
X250295Y162795D02*
X258957D01*
X233202Y120965D02*
X233563Y120604D01*
X205413Y30906D02*
X211417D01*
X224016Y28740D02*
Y37992D01*
X220669Y25394D02*
X224016Y28740D01*
X220669Y15551D02*
X225984Y20866D01*
X223425Y92323D02*
Y94291D01*
X222047Y58563D02*
Y65354D01*
Y58563D02*
X228937Y51673D01*
X231890Y48720D02*
X242618D01*
X228937Y51673D02*
X231890Y48720D01*
X263681Y56004D02*
Y58563D01*
X259252Y62992D02*
X263681Y58563D01*
X239764Y62500D02*
X242618D01*
Y40846D02*
X244587D01*
X222047Y37992D02*
Y44783D01*
X218110Y37992D02*
Y40846D01*
X222047Y44783D01*
X228937Y51673D01*
X229823Y146850D02*
Y151673D01*
X229921Y151772D01*
X225886Y103937D02*
X226532Y103291D01*
X223425Y92323D02*
X223425Y92323D01*
X226532Y95374D02*
Y103291D01*
X233563Y88386D02*
X235420D01*
X225373Y111713D02*
X225689D01*
X222716Y114370D02*
X225373Y111713D01*
X251181Y111614D02*
X258957D01*
X225614Y104209D02*
X225886Y103937D01*
X218823Y104209D02*
X225614D01*
X217224Y105807D02*
X218823Y104209D01*
X258917Y109606D02*
X258957Y109646D01*
X240098Y109606D02*
X258917D01*
X252067Y101772D02*
X258957D01*
X248917Y103740D02*
X258957D01*
X309646Y39567D02*
X310138Y40059D01*
Y49803D01*
X246752Y101575D02*
X248917Y103740D01*
X235420Y88386D02*
X238995Y84811D01*
X229823Y103150D02*
Y103937D01*
Y103150D02*
X231791Y101181D01*
Y96697D02*
Y101181D01*
X230469Y95374D02*
X231791Y96697D01*
X211417Y30906D02*
Y32282D01*
X217127Y37992D01*
X218110D01*
X244587Y40846D02*
X246555Y38878D01*
X213917Y128642D02*
X214665Y129390D01*
X216198Y146690D02*
Y153113D01*
X214587Y154724D02*
X216198Y153113D01*
X208917Y154724D02*
X214587D01*
X222203Y134646D02*
X227321Y139764D01*
X220527Y134646D02*
X222203D01*
X230469Y85335D02*
X233071Y82732D01*
X230537Y71557D02*
X232480Y73500D01*
X222047Y71046D02*
X223147Y72146D01*
X222047Y65354D02*
Y71046D01*
X227953Y68841D02*
X230537Y71425D01*
Y71557D01*
X227953Y65354D02*
Y68841D01*
X212840Y44783D02*
X215256D01*
X209176Y48720D02*
X215256D01*
X199764Y49508D02*
X199815D01*
X239961Y155905D02*
X242717D01*
X244628Y153995D01*
X248073D02*
X249000Y154921D01*
X258957D01*
X233202Y120965D02*
Y121843D01*
X235429Y123605D02*
X236074Y124249D01*
X230330Y110906D02*
Y122798D01*
X231137Y123605D01*
X235429D01*
X227321Y139764D02*
X234797D01*
X236074Y138487D01*
Y124249D02*
Y138487D01*
X230330Y110906D02*
X230483Y110754D01*
X230625D01*
X230921Y110457D01*
Y110174D02*
Y110457D01*
Y110174D02*
X231565Y109530D01*
X234839D01*
X232379Y106330D02*
X234391Y104317D01*
Y93898D02*
Y104317D01*
X225886Y103937D02*
X228000Y106051D01*
Y106330D01*
X232379D01*
X234839Y109530D02*
X234939Y109630D01*
X250295Y112500D02*
X251181Y111614D01*
X243898Y112500D02*
X250295D01*
X242913Y103740D02*
X244413Y105240D01*
X256138D01*
X256607Y105709D01*
X261319D01*
X229410Y92323D02*
X230469Y93381D01*
X223425Y92323D02*
X229410D01*
X230469Y93381D02*
Y95374D01*
X200672Y92261D02*
Y92439D01*
Y92261D02*
X201316Y91616D01*
X201494D01*
X206004Y87106D01*
X218917Y149902D02*
Y156000D01*
Y158346D01*
X225751Y155790D02*
X225794Y155832D01*
X218917Y156000D02*
X219128Y155790D01*
X225751D01*
X222952Y153740D02*
X224213D01*
X222030Y152818D02*
X222952Y153740D01*
X222030Y146439D02*
Y152818D01*
X227067Y152756D02*
X227854Y151969D01*
X225794Y155832D02*
X227067Y154559D01*
Y152756D02*
Y154559D01*
X210641Y52658D02*
X215256D01*
X208591Y45000D02*
X210343Y46752D01*
X215256D01*
X314754Y125404D02*
X315453Y124705D01*
X242979Y84449D02*
Y92684D01*
X252067Y101772D01*
X310500Y182585D02*
Y183276D01*
X209000Y48545D02*
X209176Y48720D01*
X208545Y49000D02*
X209000Y48545D01*
X213909Y60532D02*
X215256D01*
X209250Y50689D02*
X215256D01*
X203346Y73524D02*
X207087Y77264D01*
X263681Y47343D02*
X268000D01*
X234939Y109630D02*
X235069Y109500D01*
X239000D01*
X228500Y81583D02*
X232393Y77690D01*
X237000D01*
X232480Y73500D02*
Y73917D01*
X233071Y81201D02*
Y82732D01*
X244628Y153995D02*
X248073D01*
X239961Y151969D02*
Y152593D01*
X243000D01*
X242717Y62500D02*
X253839D01*
X253543Y51000D02*
X254543Y52000D01*
X259677D01*
X231890Y54626D02*
X239764Y62500D01*
X249016Y48720D02*
X250098Y49803D01*
X242618Y48720D02*
X249016D01*
X250148Y184695D02*
X256398Y190945D01*
X253543Y47543D02*
Y51000D01*
X242618Y46752D02*
X252752D01*
X253543Y47543D01*
X254429Y44783D02*
X256988Y47343D01*
X242618Y44783D02*
X254429D01*
D33*
X294882Y48819D02*
X304584D01*
X299783Y203839D02*
X300000Y203622D01*
Y190904D02*
Y199500D01*
Y203622D01*
D34*
X327628Y176673D02*
D03*
Y164272D02*
D03*
X327628Y157000D02*
D03*
X277362Y204626D02*
D03*
D35*
X329213Y48917D02*
D03*
X328248Y122343D02*
D03*
X329213Y61000D02*
D03*
X328150Y135039D02*
D03*
X296000Y5640D02*
D03*
X285000D02*
D03*
X307087Y5512D02*
D03*
X328420Y110806D02*
D03*
X329331Y37303D02*
D03*
X329213Y25197D02*
D03*
D36*
X188878Y32661D02*
D03*
Y18520D02*
D03*
D37*
X185512Y4534D02*
D03*
X190512D02*
D03*
X195512D02*
D03*
X200512D02*
D03*
X205512D02*
D03*
X210512D02*
D03*
X215512D02*
D03*
X220512D02*
D03*
X204409Y203201D02*
D03*
X209409D02*
D03*
X214409D02*
D03*
X219409D02*
D03*
X224410D02*
D03*
X229410D02*
D03*
X234409D02*
D03*
X230512Y4534D02*
D03*
X235512D02*
D03*
X240512D02*
D03*
X245512D02*
D03*
X250512D02*
D03*
X255512D02*
D03*
X309784Y203839D02*
D03*
X304784D02*
D03*
X299783D02*
D03*
D38*
X225512Y4534D02*
D03*
X199409Y203201D02*
D03*
X260512Y4534D02*
D03*
X294783Y203839D02*
D03*
D39*
X315953Y159000D02*
D03*
X311622D02*
D03*
X309009Y116069D02*
D03*
X302000Y170172D02*
D03*
X305673Y167323D02*
D03*
X304000Y129823D02*
D03*
X317421Y138000D02*
D03*
X204823Y57776D02*
D03*
X208500Y61000D02*
D03*
X209176Y64500D02*
D03*
X207223Y54803D02*
D03*
X205500Y52000D02*
D03*
X312703Y181000D02*
D03*
X208045Y48500D02*
D03*
X312795Y140847D02*
D03*
X309350Y65354D02*
D03*
X307087Y69488D02*
D03*
X307677Y44219D02*
D03*
X302658Y65453D02*
D03*
X320563Y119801D02*
D03*
X304500Y106254D02*
D03*
D40*
X302559Y142913D02*
D03*
X298425Y185398D02*
D03*
X213000Y101000D02*
D03*
X215000Y135815D02*
D03*
X213000Y90000D02*
D03*
X221000Y193000D02*
D03*
X214469Y167323D02*
D03*
X218590Y143000D02*
D03*
X321457Y14000D02*
D03*
X267000Y25197D02*
D03*
X220752Y176000D02*
D03*
X235906Y148622D02*
D03*
X236500Y114764D02*
D03*
X263500Y85500D02*
D03*
X268000Y85182D02*
D03*
X318996Y185398D02*
D03*
X214557Y71317D02*
D03*
X210827Y72146D02*
D03*
X209500Y68500D02*
D03*
X200000Y53000D02*
D03*
X254429Y27165D02*
D03*
X245281Y74902D02*
D03*
X322094Y193500D02*
D03*
X208000Y45000D02*
D03*
X209500Y39567D02*
D03*
X236500Y28000D02*
D03*
X227264Y130610D02*
D03*
X289412Y65847D02*
D03*
X306791Y30217D02*
D03*
X273130Y56398D02*
D03*
X222342Y114272D02*
D03*
X228937Y76968D02*
D03*
X256102Y69095D02*
D03*
X276969Y62303D02*
D03*
X277264Y71161D02*
D03*
X206004Y87106D02*
D03*
X204626Y105905D02*
D03*
X217815Y80216D02*
D03*
X238254Y105709D02*
D03*
X246752Y101575D02*
D03*
X242913Y103740D02*
D03*
X246161Y91535D02*
D03*
X260151Y201191D02*
D03*
X192028Y43602D02*
D03*
X231791Y101181D02*
D03*
X250098Y184744D02*
D03*
X246555Y38878D02*
D03*
X200492Y57973D02*
D03*
X197441Y131791D02*
D03*
X262000Y15000D02*
D03*
X199902Y111500D02*
D03*
X222358Y138500D02*
D03*
X219054Y76294D02*
D03*
X327000Y193500D02*
D03*
X289000Y88000D02*
D03*
X288389Y79864D02*
D03*
X252000Y40500D02*
D03*
X296819Y195579D02*
D03*
X246000Y169000D02*
D03*
X249000Y163000D02*
D03*
X237281Y167640D02*
D03*
X227500Y165000D02*
D03*
X243898Y112500D02*
D03*
X199902Y73819D02*
D03*
X242979Y84449D02*
D03*
X268000Y47343D02*
D03*
X249500Y88500D02*
D03*
X273139Y174303D02*
D03*
X239000Y109500D02*
D03*
X232480Y73917D02*
D03*
X233071Y81201D02*
D03*
X237000Y77690D02*
D03*
X246467Y156595D02*
D03*
X229000Y55094D02*
D03*
D41*
X321063Y78937D02*
D03*
X290748Y41043D02*
D03*
X307283Y85433D02*
D03*
X306890Y25098D02*
D03*
X320957Y62000D02*
D03*
X319783Y103642D02*
D03*
X319390Y51968D02*
D03*
X302000Y85000D02*
D03*
X311319Y81201D02*
D03*
X276000Y9000D02*
D03*
D42*
X313787Y194000D02*
D03*
D43*
X143491Y3500D02*
D03*
X137538D02*
D03*
X170391Y39416D02*
D03*
X139803Y45606D02*
D03*
Y53835D02*
D03*
D44*
X179901Y32661D02*
X188878D01*
D58*
X256988Y47343D02*
D03*
X263681D02*
D03*
Y56004D02*
D03*
X256988D02*
D03*
D59*
X220669Y15551D02*
D03*
Y25394D02*
D03*
D60*
X314254Y174000D02*
D03*
X312285D02*
D03*
X310317D02*
D03*
X314254Y178724D02*
D03*
X310317D02*
D03*
X310500Y189000D02*
D03*
X312469D02*
D03*
X314437D02*
D03*
X310500Y184276D02*
D03*
X314437D02*
D03*
D61*
X213917Y128642D02*
D03*
X203917D02*
D03*
X218917Y149902D02*
D03*
X213917D02*
D03*
X218917Y128642D02*
D03*
X208917D02*
D03*
X203917Y149902D02*
D03*
X208917D02*
D03*
D62*
X224213Y153740D02*
D03*
Y151772D02*
D03*
X229921Y151772D02*
D03*
Y153740D02*
D03*
D63*
X227067Y152756D02*
D03*
D64*
X311024Y97342D02*
D03*
X319685D02*
D03*
D65*
X298866Y78347D02*
D03*
Y80315D02*
D03*
Y82284D02*
D03*
X303890Y78347D02*
D03*
Y80315D02*
D03*
Y82284D02*
D03*
D66*
X279035Y47146D02*
D03*
X284154D02*
D03*
Y54626D02*
D03*
X281594D02*
D03*
X279035D02*
D03*
X278346Y31890D02*
D03*
X280906D02*
D03*
X283465D02*
D03*
Y24409D02*
D03*
X278346D02*
D03*
D67*
X258957Y99803D02*
D03*
Y117520D02*
D03*
Y137205D02*
D03*
Y156890D02*
D03*
Y176575D02*
D03*
D68*
Y101772D02*
D03*
Y103740D02*
D03*
Y105709D02*
D03*
Y107677D02*
D03*
Y109646D02*
D03*
Y111614D02*
D03*
Y113583D02*
D03*
Y115551D02*
D03*
Y119488D02*
D03*
Y121457D02*
D03*
Y123425D02*
D03*
Y125394D02*
D03*
Y127362D02*
D03*
Y129331D02*
D03*
Y131299D02*
D03*
Y133268D02*
D03*
Y135236D02*
D03*
Y139173D02*
D03*
Y141142D02*
D03*
Y143110D02*
D03*
Y145079D02*
D03*
Y147047D02*
D03*
Y149016D02*
D03*
Y150984D02*
D03*
Y152953D02*
D03*
Y154921D02*
D03*
Y158858D02*
D03*
Y160827D02*
D03*
Y162795D02*
D03*
Y164764D02*
D03*
Y166732D02*
D03*
Y168701D02*
D03*
Y170669D02*
D03*
Y172638D02*
D03*
Y174606D02*
D03*
D69*
X271752Y92323D02*
D03*
Y184055D02*
D03*
D70*
X300295Y138681D02*
D03*
X299803Y66831D02*
D03*
D71*
X230512Y95177D02*
D03*
X228543D02*
D03*
X226575D02*
D03*
X230512Y85138D02*
D03*
X228543D02*
D03*
X226575D02*
D03*
D72*
X233317Y90158D02*
D03*
Y88189D02*
D03*
Y92126D02*
D03*
X223770D02*
D03*
Y88189D02*
D03*
Y90158D02*
D03*
D73*
X223660Y86221D02*
D03*
X233427Y94095D02*
D03*
X223660D02*
D03*
X233427Y86221D02*
D03*
D74*
X311623Y163484D02*
D03*
Y166043D02*
D03*
X315560D02*
D03*
Y163386D02*
D03*
D75*
X228937Y51673D02*
D03*
D76*
X242618Y40846D02*
D03*
Y42815D02*
D03*
Y44783D02*
D03*
Y46752D02*
D03*
Y48720D02*
D03*
Y50689D02*
D03*
Y52658D02*
D03*
Y54626D02*
D03*
Y56595D02*
D03*
Y58563D02*
D03*
Y60532D02*
D03*
Y62500D02*
D03*
X215256D02*
D03*
Y60532D02*
D03*
Y58563D02*
D03*
Y56595D02*
D03*
Y54626D02*
D03*
Y52658D02*
D03*
Y50689D02*
D03*
Y48720D02*
D03*
Y46752D02*
D03*
Y44783D02*
D03*
Y42815D02*
D03*
Y40846D02*
D03*
D77*
X239764Y65354D02*
D03*
X237795D02*
D03*
X235827D02*
D03*
X233858D02*
D03*
X231890D02*
D03*
X229921D02*
D03*
X227953D02*
D03*
X225984D02*
D03*
X224016D02*
D03*
X222047D02*
D03*
X220079D02*
D03*
X218110D02*
D03*
Y37992D02*
D03*
X220079D02*
D03*
X222047D02*
D03*
X224016D02*
D03*
X225984D02*
D03*
X227953D02*
D03*
X229921D02*
D03*
X231890D02*
D03*
X233858D02*
D03*
X235827D02*
D03*
X237795D02*
D03*
D78*
X239764D02*
D03*
D79*
X315453Y124705D02*
D03*
X304035D02*
D03*
X315484Y105610D02*
D03*
X304067D02*
D03*
X315453Y115157D02*
D03*
X304035D02*
D03*
D80*
X225886Y103937D02*
D03*
X229823D02*
D03*
X211417Y30906D02*
D03*
X215354D02*
D03*
X244498Y119000D02*
D03*
X248435D02*
D03*
X248323Y126712D02*
D03*
X244386D02*
D03*
X248323Y134612D02*
D03*
X244386D02*
D03*
X248323Y142412D02*
D03*
X244386D02*
D03*
X244386Y150312D02*
D03*
X248323D02*
D03*
D81*
X219882Y164469D02*
D03*
X222441Y171949D02*
D03*
X217323D02*
D03*
D82*
X239961Y151969D02*
D03*
Y155905D02*
D03*
X240354Y120643D02*
D03*
Y124580D02*
D03*
Y128543D02*
D03*
Y132480D02*
D03*
Y136443D02*
D03*
Y140380D02*
D03*
Y144343D02*
D03*
Y148280D02*
D03*
X233202Y115551D02*
D03*
Y111614D02*
D03*
D83*
X313779Y130512D02*
D03*
Y134449D02*
D03*
X318504Y130512D02*
D03*
Y132480D02*
D03*
Y134449D02*
D03*
D84*
X309784Y139756D02*
D03*
Y134244D02*
D03*
D85*
X210728Y164469D02*
X219882D01*
X209941Y165256D02*
X210728Y164469D01*
X233149Y179500D02*
X239398D01*
X231352Y177703D02*
X233149Y179500D01*
X231352Y173891D02*
Y177703D01*
X234196Y112050D02*
X238050D01*
X233563Y111417D02*
X234196Y112050D01*
X238050D02*
X242000Y116000D01*
X244145D01*
X242972Y71949D02*
X247557D01*
X237795Y66772D02*
X242972Y71949D01*
X237795Y65354D02*
Y66772D01*
X227953Y169258D02*
Y176575D01*
X252220Y168701D02*
X258957D01*
X231338Y171024D02*
Y173876D01*
X231352Y173891D01*
X231338Y171024D02*
X231791Y170571D01*
X242717Y176772D02*
X242913Y176575D01*
X258957Y174606D02*
Y176575D01*
Y170669D02*
Y172638D01*
X252067Y166732D02*
X258957D01*
X247494Y156890D02*
X258957D01*
X246467Y156862D02*
X246994Y157390D01*
X246958Y165748D02*
X250492D01*
X251476Y164764D02*
X258957D01*
X250492Y165748D02*
X251476Y164764D01*
X240748D02*
X244193Y168209D01*
X231791Y165059D02*
X232686D01*
X226870Y176575D02*
X227953D01*
X223327Y180118D02*
X226870Y176575D01*
X221555Y180118D02*
X223327D01*
X225689Y117224D02*
Y123491D01*
X225722Y123524D01*
X255807Y99803D02*
X258957D01*
X238254Y105709D02*
X238761D01*
X252559Y96555D02*
X255807Y99803D01*
X252559Y76951D02*
Y96555D01*
X247557Y71949D02*
X252559Y76951D01*
X224614Y129513D02*
X225722Y128404D01*
Y123524D02*
Y128404D01*
X224614Y129513D02*
Y132389D01*
X228051Y135827D01*
X246994Y157390D02*
X247494Y156890D01*
X248977Y174207D02*
X250546Y172638D01*
X258957D01*
X244193Y168209D02*
X250449D01*
X251557Y167101D01*
X251698D01*
X252067Y166732D01*
X234051Y176589D02*
X236533Y174107D01*
X237737D01*
X242913Y176575D02*
X258957D01*
X234807Y168913D02*
X238500Y172607D01*
X248314D01*
X237737Y174107D02*
X237837Y174207D01*
X248977D01*
X248314Y172607D02*
X252220Y168701D01*
X227953Y169258D02*
X229211Y168000D01*
X233800D02*
X234713Y168913D01*
X229211Y168000D02*
X233800D01*
X234713Y168913D02*
X234807D01*
X228070Y165059D02*
X231791D01*
X228011Y165000D02*
X228070Y165059D01*
X227500Y165000D02*
X228011D01*
X219882Y164469D02*
X222353Y161998D01*
X243208D01*
X246958Y165748D01*
X239398Y179500D02*
X241929Y176969D01*
X254708Y115551D02*
X258957D01*
X254207Y115050D02*
X254708Y115551D01*
X244145Y116000D02*
X245095Y115050D01*
X254207D01*
X239842Y106790D02*
X255496D01*
X238761Y105709D02*
X239842Y106790D01*
X255496D02*
X256383Y107677D01*
X258957D01*
X246467Y156595D02*
Y156862D01*
D86*
X253907Y116801D02*
X254626Y117520D01*
X245906Y116801D02*
X253907D01*
X244287Y118420D02*
X245906Y116801D01*
X240354Y128543D02*
X241142Y129331D01*
X258858Y131398D02*
X258957Y131299D01*
X244287Y134513D02*
X244386Y134612D01*
X248323D02*
X254691D01*
X255315Y135236D01*
X258957D01*
X241095Y137205D02*
X258957D01*
X240354Y136464D02*
X241095Y137205D01*
X240354Y140380D02*
X241955Y138779D01*
X240354Y148280D02*
X241634D01*
X248323Y150312D02*
X254672D01*
X255345Y150984D01*
X258957D01*
X241157Y145079D02*
X258957D01*
X244386Y150312D02*
X244587Y150111D01*
X255316Y149016D02*
X258957D01*
X255512Y147047D02*
X258957D01*
X248323Y142412D02*
X254321D01*
X255020Y143110D01*
X258957D01*
X241955Y138779D02*
X254921D01*
X255315Y139173D01*
X258957D01*
X255118Y141142D02*
X258957D01*
X254429Y133268D02*
X258957D01*
X255217Y131398D02*
X258858D01*
X254429Y153051D02*
X258858D01*
X258957Y152953D01*
X248323Y126712D02*
X254271D01*
X254921Y127362D01*
X258957D01*
X254921Y125394D02*
X258957D01*
X244386Y125870D02*
Y126712D01*
X258668Y123137D02*
X258957Y123425D01*
X239879Y121457D02*
X258957D01*
X248224Y118420D02*
X252683D01*
X253752Y119488D01*
X258957D01*
X244587Y148228D02*
Y150111D01*
X254528Y148228D02*
X255316Y149016D01*
X241634Y148280D02*
X243535Y146379D01*
X254843D01*
X255512Y147047D01*
X246567Y140231D02*
X254207D01*
X244386Y142412D02*
X246567Y140231D01*
X254207D02*
X255118Y141142D01*
X240354Y132480D02*
X242224Y130610D01*
X254429D01*
X255217Y131398D01*
X241142Y129331D02*
X241666D01*
X241686Y129310D01*
X253072Y131910D02*
X254429Y133268D01*
X244498Y131910D02*
X253072D01*
X244287Y132121D02*
X244498Y131910D01*
X244287Y132121D02*
Y134513D01*
X258936Y129310D02*
X258957Y129331D01*
X241686Y129310D02*
X258936D01*
X240354Y124580D02*
X240404Y124531D01*
X243887D01*
X245281Y123137D01*
X245725Y124531D02*
X254058D01*
X244386Y125870D02*
X245725Y124531D01*
X254058D02*
X254921Y125394D01*
X245281Y123137D02*
X258668D01*
X254626Y117520D02*
X258957D01*
X244587Y148228D02*
X254528D01*
X253972Y152594D02*
X254429Y153051D01*
X243002Y152594D02*
X253972D01*
X243000Y152593D02*
X243002Y152594D01*
D87*
X313591Y164764D02*
D03*
M02*
