%FSLAX25Y25*%
%MOIN*%
G70*
G01*
G75*
G04 Layer_Physical_Order=2*
G04 Layer_Color=32768*
%ADD10C,0.00866*%
%ADD11R,0.07087X0.03937*%
G04:AMPARAMS|DCode=12|XSize=31.5mil|YSize=66.93mil|CornerRadius=0mil|HoleSize=0mil|Usage=FLASHONLY|Rotation=45.000|XOffset=0mil|YOffset=0mil|HoleType=Round|Shape=Rectangle|*
%AMROTATEDRECTD12*
4,1,4,0.01253,-0.03480,-0.03480,0.01253,-0.01253,0.03480,0.03480,-0.01253,0.01253,-0.03480,0.0*
%
%ADD12ROTATEDRECTD12*%

%ADD13R,0.01654X0.02362*%
%ADD14R,0.03543X0.02756*%
%ADD15R,0.02756X0.02362*%
%ADD16R,0.02756X0.03937*%
%ADD17R,0.07402X0.06614*%
%ADD18O,0.01575X0.06299*%
%ADD19R,0.04331X0.03937*%
%ADD20R,0.01575X0.01575*%
%ADD21R,0.02362X0.01654*%
G04:AMPARAMS|DCode=22|XSize=31.5mil|YSize=66.93mil|CornerRadius=0mil|HoleSize=0mil|Usage=FLASHONLY|Rotation=135.000|XOffset=0mil|YOffset=0mil|HoleType=Round|Shape=Rectangle|*
%AMROTATEDRECTD22*
4,1,4,0.03480,0.01253,-0.01253,-0.03480,-0.03480,-0.01253,0.01253,0.03480,0.03480,0.01253,0.0*
%
%ADD22ROTATEDRECTD22*%

%ADD23R,0.03543X0.02362*%
%ADD24R,0.02362X0.03543*%
%ADD25R,0.03937X0.04331*%
%ADD26C,0.02000*%
%ADD27C,0.01200*%
%ADD28C,0.01000*%
%ADD29C,0.02500*%
%ADD30C,0.05000*%
%ADD31C,0.00800*%
%ADD32C,0.03000*%
%ADD33C,0.01500*%
%ADD34C,0.04200*%
%ADD35C,0.06000*%
%ADD36C,0.07874*%
%ADD37C,0.03937*%
%ADD38R,0.03937X0.03937*%
%ADD39C,0.02600*%
%ADD40C,0.03000*%
%ADD41C,0.02400*%
%ADD42C,0.03400*%
%ADD43C,0.05000*%
%ADD44C,0.04000*%
%ADD45C,0.04900*%
G04:AMPARAMS|DCode=46|XSize=65mil|YSize=65mil|CornerRadius=0mil|HoleSize=0mil|Usage=FLASHONLY|Rotation=0.000|XOffset=0mil|YOffset=0mil|HoleType=Round|Shape=Relief|Width=8mil|Gap=10mil|Entries=4|*
%AMTHD46*
7,0,0,0.06500,0.04500,0.00800,45*
%
%ADD46THD46*%
%ADD47C,0.06400*%
%ADD48C,0.08306*%
%ADD49C,0.04762*%
G04:AMPARAMS|DCode=50|XSize=63.622mil|YSize=63.622mil|CornerRadius=0mil|HoleSize=0mil|Usage=FLASHONLY|Rotation=0.000|XOffset=0mil|YOffset=0mil|HoleType=Round|Shape=Relief|Width=8mil|Gap=10mil|Entries=4|*
%AMTHD50*
7,0,0,0.06362,0.04362,0.00800,45*
%
%ADD50THD50*%
G04:AMPARAMS|DCode=51|XSize=80mil|YSize=80mil|CornerRadius=0mil|HoleSize=0mil|Usage=FLASHONLY|Rotation=0.000|XOffset=0mil|YOffset=0mil|HoleType=Round|Shape=Relief|Width=8mil|Gap=10mil|Entries=4|*
%AMTHD51*
7,0,0,0.08000,0.06000,0.00800,45*
%
%ADD51THD51*%
G04:AMPARAMS|DCode=52|XSize=50mil|YSize=50mil|CornerRadius=0mil|HoleSize=0mil|Usage=FLASHONLY|Rotation=0.000|XOffset=0mil|YOffset=0mil|HoleType=Round|Shape=Relief|Width=8mil|Gap=10mil|Entries=4|*
%AMTHD52*
7,0,0,0.05000,0.03000,0.00800,45*
%
%ADD52THD52*%
%ADD53C,0.04000*%
G04:AMPARAMS|DCode=54|XSize=56mil|YSize=56mil|CornerRadius=0mil|HoleSize=0mil|Usage=FLASHONLY|Rotation=0.000|XOffset=0mil|YOffset=0mil|HoleType=Round|Shape=Relief|Width=8mil|Gap=10mil|Entries=4|*
%AMTHD54*
7,0,0,0.05600,0.03600,0.00800,45*
%
%ADD54THD54*%
%ADD55C,0.03200*%
%ADD56C,0.04400*%
%ADD57C,0.05200*%
G36*
X184000Y-197D02*
X178051Y-197D01*
X-197Y-197D01*
X1255Y208552D01*
X184000Y208563D01*
X184000Y-197D01*
D02*
G37*
G36*
X294276Y191535D02*
X294276Y94882D01*
X284155Y94882D01*
X284055Y191535D01*
X294276Y191535D01*
D02*
G37*
D28*
X284055Y191535D02*
X294276D01*
D42*
X309009Y116069D02*
D03*
X302000Y170172D02*
D03*
X304000Y129823D02*
D03*
X204823Y57776D02*
D03*
X208500Y61000D02*
D03*
X209176Y64500D02*
D03*
X207223Y54803D02*
D03*
X205500Y52000D02*
D03*
X208045Y48500D02*
D03*
X312795Y140847D02*
D03*
X307283Y85433D02*
D03*
X309350Y65354D02*
D03*
X307087Y69488D02*
D03*
X307677Y44219D02*
D03*
X319783Y103642D02*
D03*
X302000Y85000D02*
D03*
X276000Y9000D02*
D03*
X320563Y119801D02*
D03*
D44*
X284055Y191535D02*
X294276Y191535D01*
X294276Y94882D02*
X294276Y191535D01*
X284155Y94882D02*
X294276Y94882D01*
X284055Y191535D02*
X284155Y94882D01*
X321457Y208698D02*
X323310Y208552D01*
X11811Y208661D02*
X321457Y208698D01*
X9958Y208552D02*
X11811Y208661D01*
X8150Y208118D02*
X9958Y208552D01*
X6432Y207407D02*
X8150Y208118D01*
X4847Y206435D02*
X6432Y207407D01*
X3433Y205228D02*
X4847Y206435D01*
X2226Y203814D02*
X3433Y205228D01*
X1255Y202229D02*
X2226Y203814D01*
X543Y200512D02*
X1255Y202229D01*
X109Y198704D02*
X543Y200512D01*
X-37Y196850D02*
X109Y198704D01*
X-37Y196850D02*
X0Y11811D01*
X109Y9958D01*
X543Y8150D01*
X1255Y6432D01*
X2226Y4847D01*
X3433Y3433D01*
X4847Y2226D01*
X6432Y1255D01*
X8150Y543D01*
X9958Y109D01*
X11811Y-37D01*
X321457Y0D01*
X323310Y109D01*
X325118Y543D01*
X326835Y1255D01*
X328420Y2226D01*
X329834Y3434D01*
X331042Y4847D01*
X332013Y6432D01*
X332724Y8150D01*
X333158Y9958D01*
X333304Y11811D01*
X333268Y196850D02*
X333304Y11811D01*
X333158Y198704D02*
X333268Y196850D01*
X332724Y200512D02*
X333158Y198704D01*
X332013Y202229D02*
X332724Y200512D01*
X331042Y203814D02*
X332013Y202229D01*
X329834Y205228D02*
X331042Y203814D01*
X328420Y206435D02*
X329834Y205228D01*
X326835Y207407D02*
X328420Y206435D01*
X325118Y208118D02*
X326835Y207407D01*
X323310Y208552D02*
X325118Y208118D01*
D45*
X327628Y176673D02*
D03*
Y164272D02*
D03*
X277362Y204626D02*
D03*
D46*
X327628Y157000D02*
D03*
D47*
X329213Y48917D02*
D03*
X328248Y122343D02*
D03*
X328150Y135039D02*
D03*
X296000Y5640D02*
D03*
X285000D02*
D03*
X307087Y5512D02*
D03*
X328420Y110806D02*
D03*
X329331Y37303D02*
D03*
X329213Y25197D02*
D03*
D48*
X188878Y32661D02*
D03*
Y18520D02*
D03*
D49*
X185512Y4534D02*
D03*
X190512D02*
D03*
X195512D02*
D03*
X200512D02*
D03*
X205512D02*
D03*
X210512D02*
D03*
X215512D02*
D03*
X220512D02*
D03*
X204409Y203201D02*
D03*
X209409D02*
D03*
X214409D02*
D03*
X219409D02*
D03*
X224410D02*
D03*
X229410D02*
D03*
X234409D02*
D03*
X230512Y4534D02*
D03*
X235512D02*
D03*
X240512D02*
D03*
X245512D02*
D03*
X250512D02*
D03*
X255512D02*
D03*
X309784Y203839D02*
D03*
X304784D02*
D03*
X299783D02*
D03*
D50*
X225512Y4534D02*
D03*
X199409Y203201D02*
D03*
X260512Y4534D02*
D03*
X294783Y203839D02*
D03*
D51*
X329213Y61000D02*
D03*
D52*
X315953Y159000D02*
D03*
X311622D02*
D03*
X305673Y167323D02*
D03*
X317421Y138000D02*
D03*
X290748Y41043D02*
D03*
X312703Y181000D02*
D03*
X306890Y25098D02*
D03*
X302658Y65453D02*
D03*
X319390Y51968D02*
D03*
X304500Y106254D02*
D03*
D53*
X302559Y142913D02*
D03*
X298425Y185398D02*
D03*
X213000Y101000D02*
D03*
X215000Y135815D02*
D03*
X213000Y90000D02*
D03*
X221000Y193000D02*
D03*
X214469Y167323D02*
D03*
X218590Y143000D02*
D03*
X267000Y25197D02*
D03*
X263500Y85500D02*
D03*
X268000Y85182D02*
D03*
X318996Y185398D02*
D03*
X214557Y71317D02*
D03*
X210827Y72146D02*
D03*
X209500Y68500D02*
D03*
X200000Y53000D02*
D03*
X254429Y27165D02*
D03*
X245281Y74902D02*
D03*
X208000Y45000D02*
D03*
X209500Y39567D02*
D03*
X236500Y28000D02*
D03*
X227264Y130610D02*
D03*
X289412Y65847D02*
D03*
X306791Y30217D02*
D03*
X273130Y56398D02*
D03*
X222342Y114272D02*
D03*
X228937Y76968D02*
D03*
X256102Y69095D02*
D03*
X276969Y62303D02*
D03*
X277264Y71161D02*
D03*
X206004Y87106D02*
D03*
X204626Y105905D02*
D03*
X217815Y80216D02*
D03*
X238254Y105709D02*
D03*
X242913Y103740D02*
D03*
X246161Y91535D02*
D03*
X260151Y201191D02*
D03*
X192028Y43602D02*
D03*
X246555Y38878D02*
D03*
X200492Y57973D02*
D03*
X197441Y131791D02*
D03*
X222358Y138500D02*
D03*
X219054Y76294D02*
D03*
X327000Y193500D02*
D03*
X289000Y88000D02*
D03*
X288389Y79864D02*
D03*
X252000Y40500D02*
D03*
X296819Y195579D02*
D03*
X246000Y169000D02*
D03*
X227500Y165000D02*
D03*
X243898Y112500D02*
D03*
X199902Y73819D02*
D03*
X242979Y84449D02*
D03*
X249500Y88500D02*
D03*
X273139Y174303D02*
D03*
X239000Y109500D02*
D03*
X232480Y73917D02*
D03*
X233071Y81201D02*
D03*
X237000Y77690D02*
D03*
X246467Y156595D02*
D03*
D54*
X321457Y14000D02*
D03*
X220752Y176000D02*
D03*
X235906Y148622D02*
D03*
X236500Y114764D02*
D03*
X322094Y193500D02*
D03*
X246752Y101575D02*
D03*
X231791Y101181D02*
D03*
X250098Y184744D02*
D03*
X262000Y15000D02*
D03*
X199902Y111500D02*
D03*
X249000Y163000D02*
D03*
X237281Y167640D02*
D03*
X268000Y47343D02*
D03*
X229000Y55094D02*
D03*
D55*
X321063Y78937D02*
D03*
X320957Y62000D02*
D03*
X311319Y81201D02*
D03*
D56*
X313787Y194000D02*
D03*
D57*
X170391Y39416D02*
D03*
X139803Y45606D02*
D03*
Y53835D02*
D03*
M02*
