%FSLAX25Y25*%
%MOIN*%
G70*
G01*
G75*
G04 Layer_Physical_Order=1*
G04 Layer_Color=255*
%ADD10C,0.00866*%
%ADD11R,0.07087X0.03937*%
G04:AMPARAMS|DCode=12|XSize=31.5mil|YSize=66.93mil|CornerRadius=0mil|HoleSize=0mil|Usage=FLASHONLY|Rotation=45.000|XOffset=0mil|YOffset=0mil|HoleType=Round|Shape=Rectangle|*
%AMROTATEDRECTD12*
4,1,4,0.01253,-0.03480,-0.03480,0.01253,-0.01253,0.03480,0.03480,-0.01253,0.01253,-0.03480,0.0*
%
%ADD12ROTATEDRECTD12*%

%ADD13R,0.01654X0.02362*%
%ADD14R,0.03543X0.02756*%
%ADD15R,0.02756X0.02362*%
%ADD16R,0.02756X0.03937*%
%ADD17R,0.07402X0.06614*%
%ADD18O,0.01575X0.06299*%
%ADD19R,0.04331X0.03937*%
%ADD20R,0.01575X0.01575*%
%ADD21R,0.02362X0.01654*%
G04:AMPARAMS|DCode=22|XSize=31.5mil|YSize=66.93mil|CornerRadius=0mil|HoleSize=0mil|Usage=FLASHONLY|Rotation=135.000|XOffset=0mil|YOffset=0mil|HoleType=Round|Shape=Rectangle|*
%AMROTATEDRECTD22*
4,1,4,0.03480,0.01253,-0.01253,-0.03480,-0.03480,-0.01253,0.01253,0.03480,0.03480,0.01253,0.0*
%
%ADD22ROTATEDRECTD22*%

%ADD23R,0.03543X0.02362*%
%ADD24R,0.02362X0.03543*%
%ADD25R,0.03937X0.04331*%
%ADD26C,0.02000*%
%ADD27C,0.01200*%
%ADD28C,0.01000*%
%ADD29C,0.02500*%
%ADD30C,0.05000*%
%ADD31C,0.00800*%
%ADD32C,0.03000*%
%ADD33C,0.01500*%
%ADD34C,0.04200*%
%ADD35C,0.06000*%
%ADD36C,0.07874*%
%ADD37C,0.03937*%
%ADD38R,0.03937X0.03937*%
%ADD39C,0.02600*%
%ADD40C,0.03000*%
%ADD41C,0.02400*%
%ADD42C,0.03400*%
%ADD43C,0.05000*%
D10*
X315362Y186425D02*
D03*
X313787D02*
D03*
X312213D02*
D03*
X310638D02*
D03*
X315362Y188000D02*
D03*
X313787D02*
D03*
X312213D02*
D03*
X310638D02*
D03*
X315362Y189575D02*
D03*
X313787D02*
D03*
X312213D02*
D03*
X310638D02*
D03*
D11*
X296949Y33150D02*
D03*
Y19803D02*
D03*
D12*
X325008Y17823D02*
D03*
X315543Y8358D02*
D03*
D13*
X313583Y27022D02*
D03*
X316142D02*
D03*
X318701D02*
D03*
X313583Y34503D02*
D03*
X316142D02*
D03*
X318701D02*
D03*
D14*
X317873Y130610D02*
D03*
X310393Y128051D02*
D03*
Y133169D02*
D03*
D15*
X300937Y48622D02*
D03*
X293063D02*
D03*
X300937Y41142D02*
D03*
X311516Y40945D02*
D03*
X319390D02*
D03*
X311516Y48425D02*
D03*
D16*
X293063Y41929D02*
D03*
X319390Y47638D02*
D03*
D17*
X313787Y159000D02*
D03*
D18*
X317626Y167366D02*
D03*
X315067D02*
D03*
X312508D02*
D03*
X309949D02*
D03*
X317626Y150634D02*
D03*
X315067D02*
D03*
X312508D02*
D03*
X309949D02*
D03*
D19*
X312347Y110806D02*
D03*
X305654D02*
D03*
X260138Y204724D02*
D03*
X253445D02*
D03*
D20*
X316437Y98819D02*
D03*
X310925D02*
D03*
D21*
X309252Y89075D02*
D03*
Y91634D02*
D03*
Y94193D02*
D03*
X301772Y89075D02*
D03*
Y91634D02*
D03*
Y94193D02*
D03*
X308858Y73130D02*
D03*
Y75689D02*
D03*
Y78248D02*
D03*
X301378Y73130D02*
D03*
Y75689D02*
D03*
Y78248D02*
D03*
X309350Y57284D02*
D03*
Y59842D02*
D03*
Y62402D02*
D03*
X301870Y57284D02*
D03*
Y59842D02*
D03*
Y62402D02*
D03*
D22*
X328650Y190641D02*
D03*
X319185Y200107D02*
D03*
D23*
X307472Y180756D02*
D03*
Y175244D02*
D03*
X284350Y29256D02*
D03*
Y23744D02*
D03*
Y48622D02*
D03*
Y43110D02*
D03*
X294882Y65650D02*
D03*
Y60138D02*
D03*
Y75295D02*
D03*
Y80807D02*
D03*
X298483Y105315D02*
D03*
Y99803D02*
D03*
X283760Y80744D02*
D03*
Y86256D02*
D03*
X316043Y62303D02*
D03*
Y56791D02*
D03*
X316142Y72539D02*
D03*
Y78051D02*
D03*
Y93799D02*
D03*
Y88287D02*
D03*
X302362Y191535D02*
D03*
Y186024D02*
D03*
X300000Y180756D02*
D03*
Y175244D02*
D03*
X319390Y112256D02*
D03*
Y106744D02*
D03*
X317000Y180756D02*
D03*
Y175244D02*
D03*
D24*
X309941Y20669D02*
D03*
X315453D02*
D03*
X320768Y68209D02*
D03*
X326279D02*
D03*
X326075Y83760D02*
D03*
X320563D02*
D03*
X320744Y97500D02*
D03*
X326256D02*
D03*
X283760Y57480D02*
D03*
X289272D02*
D03*
X289272Y71260D02*
D03*
X283760D02*
D03*
X309947Y120000D02*
D03*
X315459D02*
D03*
D25*
X272638Y3248D02*
D03*
Y9941D02*
D03*
D26*
X309947Y120000D02*
Y127606D01*
Y117008D02*
Y120000D01*
X309009Y116069D02*
X309947Y117008D01*
Y127606D02*
X310393Y128051D01*
X310000Y175244D02*
X317000D01*
X307472D02*
X310000D01*
X209176Y64500D02*
X239263D01*
X226446Y101000D02*
X238946Y88500D01*
X213000Y101000D02*
X226446D01*
X273579Y9000D02*
X276000D01*
X272638Y9941D02*
X273579Y9000D01*
X219409Y203155D02*
X224100Y198464D01*
X215000Y145609D02*
X224100Y154709D01*
Y198464D01*
X217652Y160652D02*
Y197938D01*
X214409Y201181D02*
X217652Y197938D01*
X207500Y150500D02*
X217652Y160652D01*
X263000Y11000D02*
X265806Y13806D01*
X207500Y136463D02*
X238254Y105709D01*
X207500Y136463D02*
Y150500D01*
X214409Y201181D02*
Y203201D01*
X219409D02*
Y203248D01*
Y203155D02*
Y203201D01*
X232951Y117864D02*
X242918D01*
X215000Y135815D02*
X232951Y117864D01*
X215000Y135815D02*
Y145609D01*
X242913Y103740D02*
Y104738D01*
X247501Y109326D01*
Y113281D01*
X242918Y117864D02*
X247501Y113281D01*
X314415Y30501D02*
X317773Y33858D01*
X273524Y102181D02*
Y174028D01*
X252600Y81257D02*
X273524Y102181D01*
X252600Y77837D02*
Y81257D01*
X320563Y79437D02*
X321063Y78937D01*
X205500Y52000D02*
X205597Y51903D01*
X229410Y202382D02*
X230600Y201191D01*
Y137500D02*
Y201191D01*
Y137500D02*
X252000Y116100D01*
X229410Y202382D02*
Y203201D01*
X238946Y88500D02*
X244813D01*
X252000Y100623D02*
Y116100D01*
X246161Y94784D02*
X252000Y100623D01*
X246161Y91535D02*
Y94784D01*
X255645Y90261D02*
Y121275D01*
X245579Y80195D02*
X255645Y90261D01*
X234409Y203201D02*
X236409D01*
X242900Y196711D01*
Y134020D02*
Y196711D01*
Y134020D02*
X255645Y121275D01*
X245579Y75200D02*
Y80195D01*
X245281Y74902D02*
X245579Y75200D01*
X268000Y56500D02*
Y85182D01*
X252000Y40500D02*
X268000Y56500D01*
X307075Y30501D02*
X314415D01*
X311376Y25098D02*
X313246Y26969D01*
X306890Y25098D02*
X311376D01*
X300937Y48425D02*
X307579D01*
X300937Y40945D02*
Y48425D01*
X290748Y41043D02*
X292177D01*
X293063Y41929D01*
X244813Y88500D02*
X244877Y88435D01*
X249435D01*
X249500Y88500D01*
X208000Y45000D02*
X232008D01*
X256102Y69095D01*
X215057Y70817D02*
X234511D01*
X214557Y71317D02*
X215057Y70817D01*
X234511D02*
X242979Y79285D01*
Y84449D01*
X239263Y64500D02*
X252600Y77837D01*
X298919Y53939D02*
X301772Y56791D01*
X292813Y53939D02*
X298919D01*
X283858Y71063D02*
Y79528D01*
X196358Y47933D02*
Y85056D01*
X315453Y77953D02*
Y87598D01*
X298425Y91535D02*
Y98081D01*
X298483Y91593D02*
X301772D01*
X294685Y87795D02*
X298483Y91593D01*
X294685Y80512D02*
Y87795D01*
X283858Y79528D02*
X283957Y79626D01*
X311516Y40945D02*
Y48425D01*
X320563Y79437D02*
Y83760D01*
X319390Y47638D02*
Y51968D01*
X315748Y62008D02*
Y72146D01*
X294685Y66339D02*
Y73819D01*
X307677Y44219D02*
Y48327D01*
X307579Y48425D02*
X307677Y48327D01*
X307579Y48425D02*
X311516D01*
X285531Y7087D02*
Y9843D01*
X306791Y30217D02*
X307075Y30501D01*
X260138Y201204D02*
Y204724D01*
Y201204D02*
X260151Y201191D01*
X204626Y93324D02*
Y93701D01*
Y105905D01*
X192028Y43602D02*
X196358Y47933D01*
Y85056D02*
X204626Y93324D01*
X289272Y57480D02*
X292813Y53939D01*
X311319Y80709D02*
Y81201D01*
X308858Y78248D02*
X311319Y80709D01*
X319783Y112386D02*
X320563Y113165D01*
Y119801D01*
X265806Y13806D02*
X281568D01*
X285531Y9843D01*
X232480Y73917D02*
X233071Y74508D01*
Y81201D01*
X317000Y175244D02*
X326031D01*
X327461Y176673D01*
X319185Y199272D02*
Y200107D01*
Y199272D02*
X321457Y197000D01*
Y194137D02*
Y197000D01*
Y194137D02*
X322094Y193500D01*
X210512Y7512D02*
X214000Y11000D01*
X210512Y4534D02*
Y7512D01*
X214000Y11000D02*
X263000D01*
D27*
X312347Y110000D02*
Y111790D01*
X315459Y113919D02*
Y120000D01*
X312347Y110806D02*
X315459Y113919D01*
X299500Y150500D02*
X306582Y143418D01*
X299500Y150500D02*
Y175244D01*
X312303Y146681D02*
Y149634D01*
X302559Y142913D02*
X302835Y143190D01*
X306791Y147681D02*
Y163413D01*
X311622Y133169D02*
Y135933D01*
X317626Y141937D01*
X313787Y159000D02*
X315067Y160280D01*
Y167366D01*
X317626Y141937D02*
Y150634D01*
X315067Y145067D02*
Y150634D01*
X313418Y143418D02*
X315067Y145067D01*
X306582Y143418D02*
X313418D01*
X309949Y175193D02*
X310000Y175244D01*
X309949Y167366D02*
Y175193D01*
X319732Y172000D02*
X327461Y164272D01*
X314528Y172000D02*
X319732D01*
X312608Y170080D02*
X314528Y172000D01*
X312608Y168939D02*
Y170080D01*
X304810Y183642D02*
X310357D01*
X301924Y180756D02*
X304810Y183642D01*
X300000Y180756D02*
X301924D01*
X310357Y183642D02*
X313244Y180756D01*
X317000D01*
X306791Y163413D02*
X309744Y166366D01*
X299051Y186024D02*
X302362D01*
X298425Y185398D02*
X299051Y186024D01*
X208500Y61000D02*
X211000Y58500D01*
X208837Y101163D02*
X222000Y88000D01*
X208837Y101163D02*
Y128986D01*
X222000Y79239D02*
Y88000D01*
X217815Y80216D02*
Y89185D01*
X213299Y93701D02*
X217815Y89185D01*
X204626Y93701D02*
X213299D01*
X203599Y134224D02*
X208837Y128986D01*
X203599Y156454D02*
X214469Y167323D01*
X203599Y134224D02*
Y156454D01*
X219054Y76294D02*
X222000Y79239D01*
X316142Y34503D02*
X318701D01*
X205597Y51903D02*
X208424D01*
X211000Y54479D01*
Y58500D01*
X287461Y90000D02*
X289000Y88461D01*
X281961Y90000D02*
X287461D01*
X273130Y81169D02*
X281961Y90000D01*
X318701Y23917D02*
Y27022D01*
X218221Y73130D02*
X221130D01*
X206004Y85347D02*
X218221Y73130D01*
X206004Y85347D02*
Y87106D01*
X224969Y76968D02*
X228937D01*
X221130Y73130D02*
X224969Y76968D01*
X301181Y72933D02*
X304626Y69488D01*
X298483Y105315D02*
X301772Y102026D01*
Y94193D02*
Y102026D01*
X315354Y89075D02*
X316142Y88287D01*
X309252Y89075D02*
X315354D01*
X315232Y100886D02*
X317913D01*
X316142Y93799D02*
X316437Y94095D01*
Y98819D01*
X309252Y94193D02*
X310236D01*
X317913Y100886D02*
X321260Y97539D01*
X313976Y91634D02*
X316142Y93799D01*
X309252Y91634D02*
X313976D01*
X309350Y62402D02*
Y65354D01*
X304626Y69488D02*
X307087D01*
X283169Y86417D02*
X283957D01*
X294685Y59547D02*
X305906D01*
X308169Y57284D01*
X289412Y65847D02*
Y70515D01*
X289469Y70571D01*
X320768Y68209D02*
X320957Y68020D01*
Y62000D02*
Y68020D01*
X315748Y62008D02*
X316043Y62303D01*
X313583Y59842D02*
X315748Y62008D01*
X309350Y59842D02*
X313583D01*
X315551Y73130D02*
X316142Y72539D01*
X308858Y73130D02*
X315551D01*
X315551Y77461D02*
X316142Y78051D01*
X314272Y77461D02*
X315551D01*
X312500Y75689D02*
X314272Y77461D01*
X308858Y75689D02*
X312500D01*
X299803D02*
X301378D01*
X299410Y75295D02*
X299803Y75689D01*
X294882Y75295D02*
X299410D01*
X298819Y80807D02*
X301378Y78248D01*
X294882Y80807D02*
X298819D01*
X295965Y65059D02*
X299016D01*
X308169Y57284D02*
X309719Y57087D01*
X299016Y65059D02*
X301673Y62402D01*
X309719Y57087D02*
X314469D01*
X289000Y88000D02*
Y88461D01*
X283957Y86417D02*
X288389Y81985D01*
Y79864D02*
Y81985D01*
X301772Y85228D02*
X302000Y85000D01*
X301772Y85228D02*
Y89075D01*
X298483Y105315D02*
X303168Y110000D01*
X304847D01*
X305654Y110806D01*
X273130Y56398D02*
Y81169D01*
X304500Y106254D02*
Y109055D01*
X313365Y34503D02*
X313583D01*
X310236Y94193D02*
X313787Y97744D01*
Y99441D01*
X315232Y100886D01*
X330928Y162737D02*
Y165639D01*
X329162Y160972D02*
X330928Y162737D01*
X324028Y160972D02*
X329162D01*
X318634Y166366D02*
X324028Y160972D01*
X317626Y166366D02*
X318634D01*
X306791Y147681D02*
X308472Y146000D01*
X311622D01*
X312303Y146681D01*
X301961Y175244D02*
X307472Y180756D01*
X299500Y175244D02*
X301961D01*
X327461Y169106D02*
X330928Y165639D01*
X327461Y169106D02*
Y176673D01*
D28*
X304787Y130610D02*
X317873D01*
X304000Y129823D02*
X304787Y130610D01*
X263267Y1255D02*
X265260Y3248D01*
X243391Y1255D02*
X263267D01*
X240512Y4134D02*
X243391Y1255D01*
X238470Y204724D02*
X253445D01*
X236471Y206723D02*
X238470Y204724D01*
X232931Y206723D02*
X236471D01*
X229410Y203201D02*
X232931Y206723D01*
X205079Y90000D02*
X213000D01*
X202854Y87775D02*
X205079Y90000D01*
X204823Y57776D02*
Y58661D01*
Y61170D02*
Y69032D01*
Y61170D02*
X207223Y58770D01*
X199902Y63583D02*
X204823Y58661D01*
X207223Y54803D02*
Y58770D01*
X265636Y6513D02*
X276316D01*
X263792Y8358D02*
X265636Y6513D01*
X233933Y8358D02*
X263792D01*
X230512Y4936D02*
X233933Y8358D01*
X321457Y14000D02*
X324457Y17000D01*
X202854Y71000D02*
X204823Y69032D01*
X292500Y10500D02*
X313401D01*
X290000Y8000D02*
X292500Y10500D01*
X290000Y4226D02*
Y8000D01*
X313401Y10500D02*
X315543Y8358D01*
X281575Y1255D02*
X287029D01*
X276316Y6513D02*
X281575Y1255D01*
X230512Y4134D02*
Y4936D01*
X287029Y1255D02*
X290000Y4226D01*
X313583Y27022D02*
X316142D01*
X304784Y203839D02*
X305444D01*
X310925Y98819D02*
Y99803D01*
X314764Y103642D01*
X319783D01*
X324185Y17000D02*
X324457D01*
X324185D02*
X325008Y17823D01*
X296819Y195579D02*
X297184D01*
X305444Y203839D01*
X265260Y3248D02*
X272638D01*
X199902Y63583D02*
Y73819D01*
X202854Y71000D02*
Y87775D01*
X295849Y191535D02*
X302362D01*
X282759Y204626D02*
X295849Y191535D01*
X277362Y204626D02*
X282759D01*
D29*
X284350Y48622D02*
X293063D01*
Y48425D02*
X297000Y44488D01*
Y39903D02*
Y44488D01*
Y39903D02*
X299600Y37303D01*
X301671D01*
X304472Y34503D01*
X284155Y20105D02*
Y23548D01*
X304472Y34503D02*
X313365D01*
X324214Y65237D02*
X326279Y67303D01*
X324214Y29430D02*
Y65237D01*
X322068Y27284D02*
X324214Y29430D01*
X326256Y68209D02*
X326279Y67303D01*
X283760Y49213D02*
X284350Y48622D01*
Y29256D02*
Y32661D01*
X284155Y23548D02*
X284350Y23744D01*
X319390Y40945D02*
X323708D01*
X326256Y97047D02*
X326279Y97244D01*
X326256Y68209D02*
Y97047D01*
D30*
X191105Y20105D02*
X284155D01*
X189520Y18520D02*
X191105Y20105D01*
X188878Y32661D02*
X284350D01*
X298000D01*
X284155Y20105D02*
X308695D01*
X139803Y45606D02*
X145994Y39416D01*
X170391D01*
X188878Y18520D02*
X189520D01*
X139803Y45606D02*
Y53835D01*
D31*
X316254Y190467D02*
X319000D01*
X322033Y193500D02*
X322094D01*
X319000Y190467D02*
X322033Y193500D01*
X320169Y200107D02*
Y200796D01*
X313246Y193459D02*
X313787Y194000D01*
X313246Y191008D02*
Y193459D01*
X315362Y189575D02*
X316254Y190467D01*
X307472Y186425D02*
X310638D01*
Y189575D02*
Y190027D01*
Y188000D02*
Y189575D01*
Y190027D02*
X311619Y191008D01*
X313246D01*
X313787Y190467D01*
Y189575D02*
Y190467D01*
Y188000D02*
Y189575D01*
Y186425D02*
Y188000D01*
X312213D02*
Y189575D01*
Y186425D02*
Y188000D01*
Y185531D02*
Y186425D01*
X302362Y191535D02*
X307472Y186425D01*
X328650Y190641D02*
Y191850D01*
X327000Y193500D02*
X328650Y191850D01*
X306971Y85746D02*
X307283Y85433D01*
X306971Y85746D02*
Y98518D01*
X315327Y106874D01*
X319783D01*
X312213Y185531D02*
X313000Y184744D01*
X315362Y185398D02*
X318996D01*
X313000Y184744D02*
X314708D01*
X315362Y185398D01*
Y186425D01*
Y188000D01*
D32*
X318701Y23917D02*
X322068Y27284D01*
X315460Y20669D02*
X318701Y23910D01*
Y23917D01*
X283760Y57480D02*
Y79528D01*
Y49213D02*
Y57480D01*
X284350Y32661D02*
Y43110D01*
D33*
X309784Y203839D02*
X310039Y203583D01*
X326256Y97047D02*
X326772Y97539D01*
D34*
X327628Y176673D02*
D03*
Y164272D02*
D03*
X327628Y157000D02*
D03*
X277362Y204626D02*
D03*
D35*
X329213Y48917D02*
D03*
X328248Y122343D02*
D03*
X329213Y61000D02*
D03*
X328150Y135039D02*
D03*
X296000Y5640D02*
D03*
X285000D02*
D03*
X307087Y5512D02*
D03*
X328420Y110806D02*
D03*
X329331Y37303D02*
D03*
X329213Y25197D02*
D03*
D36*
X188878Y32661D02*
D03*
Y18520D02*
D03*
D37*
X185512Y4534D02*
D03*
X190512D02*
D03*
X195512D02*
D03*
X200512D02*
D03*
X205512D02*
D03*
X210512D02*
D03*
X215512D02*
D03*
X220512D02*
D03*
X204409Y203201D02*
D03*
X209409D02*
D03*
X214409D02*
D03*
X219409D02*
D03*
X224410D02*
D03*
X229410D02*
D03*
X234409D02*
D03*
X230512Y4534D02*
D03*
X235512D02*
D03*
X240512D02*
D03*
X245512D02*
D03*
X250512D02*
D03*
X255512D02*
D03*
X309784Y203839D02*
D03*
X304784D02*
D03*
X299783D02*
D03*
D38*
X225512Y4534D02*
D03*
X199409Y203201D02*
D03*
X260512Y4534D02*
D03*
X294783Y203839D02*
D03*
D39*
X315953Y159000D02*
D03*
X311622D02*
D03*
X309009Y116069D02*
D03*
X302000Y170172D02*
D03*
X305673Y167323D02*
D03*
X304000Y129823D02*
D03*
X317421Y138000D02*
D03*
X204823Y57776D02*
D03*
X208500Y61000D02*
D03*
X209176Y64500D02*
D03*
X207223Y54803D02*
D03*
X205500Y52000D02*
D03*
X312703Y181000D02*
D03*
X208045Y48500D02*
D03*
X312795Y140847D02*
D03*
X309350Y65354D02*
D03*
X307087Y69488D02*
D03*
X307677Y44219D02*
D03*
X302658Y65453D02*
D03*
X320563Y119801D02*
D03*
X304500Y106254D02*
D03*
D40*
X302559Y142913D02*
D03*
X298425Y185398D02*
D03*
X213000Y101000D02*
D03*
X215000Y135815D02*
D03*
X213000Y90000D02*
D03*
X221000Y193000D02*
D03*
X214469Y167323D02*
D03*
X218590Y143000D02*
D03*
X321457Y14000D02*
D03*
X267000Y25197D02*
D03*
X220752Y176000D02*
D03*
X235906Y148622D02*
D03*
X236500Y114764D02*
D03*
X263500Y85500D02*
D03*
X268000Y85182D02*
D03*
X318996Y185398D02*
D03*
X214557Y71317D02*
D03*
X210827Y72146D02*
D03*
X209500Y68500D02*
D03*
X200000Y53000D02*
D03*
X254429Y27165D02*
D03*
X245281Y74902D02*
D03*
X322094Y193500D02*
D03*
X208000Y45000D02*
D03*
X209500Y39567D02*
D03*
X236500Y28000D02*
D03*
X227264Y130610D02*
D03*
X289412Y65847D02*
D03*
X306791Y30217D02*
D03*
X273130Y56398D02*
D03*
X222342Y114272D02*
D03*
X228937Y76968D02*
D03*
X256102Y69095D02*
D03*
X276969Y62303D02*
D03*
X277264Y71161D02*
D03*
X206004Y87106D02*
D03*
X204626Y105905D02*
D03*
X217815Y80216D02*
D03*
X238254Y105709D02*
D03*
X246752Y101575D02*
D03*
X242913Y103740D02*
D03*
X246161Y91535D02*
D03*
X260151Y201191D02*
D03*
X192028Y43602D02*
D03*
X231791Y101181D02*
D03*
X250098Y184744D02*
D03*
X246555Y38878D02*
D03*
X200492Y57973D02*
D03*
X197441Y131791D02*
D03*
X262000Y15000D02*
D03*
X199902Y111500D02*
D03*
X222358Y138500D02*
D03*
X219054Y76294D02*
D03*
X327000Y193500D02*
D03*
X289000Y88000D02*
D03*
X288389Y79864D02*
D03*
X252000Y40500D02*
D03*
X296819Y195579D02*
D03*
X246000Y169000D02*
D03*
X249000Y163000D02*
D03*
X237281Y167640D02*
D03*
X227500Y165000D02*
D03*
X243898Y112500D02*
D03*
X199902Y73819D02*
D03*
X242979Y84449D02*
D03*
X268000Y47343D02*
D03*
X249500Y88500D02*
D03*
X273139Y174303D02*
D03*
X239000Y109500D02*
D03*
X232480Y73917D02*
D03*
X233071Y81201D02*
D03*
X237000Y77690D02*
D03*
X246467Y156595D02*
D03*
X229000Y55094D02*
D03*
D41*
X321063Y78937D02*
D03*
X290748Y41043D02*
D03*
X307283Y85433D02*
D03*
X306890Y25098D02*
D03*
X320957Y62000D02*
D03*
X319783Y103642D02*
D03*
X319390Y51968D02*
D03*
X302000Y85000D02*
D03*
X311319Y81201D02*
D03*
X276000Y9000D02*
D03*
D42*
X313787Y194000D02*
D03*
D43*
X170391Y39416D02*
D03*
X139803Y45606D02*
D03*
Y53835D02*
D03*
M02*
