%FSLAX25Y25*%
%MOIN*%
G70*
G01*
G75*
G04 Layer_Physical_Order=3*
G04 Layer_Color=16440176*
%ADD10C,0.00866*%
%ADD11R,0.07087X0.03937*%
G04:AMPARAMS|DCode=12|XSize=31.5mil|YSize=66.93mil|CornerRadius=0mil|HoleSize=0mil|Usage=FLASHONLY|Rotation=45.000|XOffset=0mil|YOffset=0mil|HoleType=Round|Shape=Rectangle|*
%AMROTATEDRECTD12*
4,1,4,0.01253,-0.03480,-0.03480,0.01253,-0.01253,0.03480,0.03480,-0.01253,0.01253,-0.03480,0.0*
%
%ADD12ROTATEDRECTD12*%

%ADD13R,0.01654X0.02362*%
%ADD14R,0.03543X0.02756*%
%ADD15R,0.02756X0.02362*%
%ADD16R,0.02756X0.03937*%
%ADD17R,0.07402X0.06614*%
%ADD18O,0.01575X0.06299*%
%ADD19R,0.04331X0.03937*%
%ADD20R,0.01575X0.01575*%
%ADD21R,0.02362X0.01654*%
G04:AMPARAMS|DCode=22|XSize=31.5mil|YSize=66.93mil|CornerRadius=0mil|HoleSize=0mil|Usage=FLASHONLY|Rotation=135.000|XOffset=0mil|YOffset=0mil|HoleType=Round|Shape=Rectangle|*
%AMROTATEDRECTD22*
4,1,4,0.03480,0.01253,-0.01253,-0.03480,-0.03480,-0.01253,0.01253,0.03480,0.03480,0.01253,0.0*
%
%ADD22ROTATEDRECTD22*%

%ADD23R,0.03543X0.02362*%
%ADD24R,0.02362X0.03543*%
%ADD25R,0.03937X0.04331*%
%ADD26C,0.02000*%
%ADD27C,0.01200*%
%ADD28C,0.01000*%
%ADD29C,0.02500*%
%ADD30C,0.05000*%
%ADD31C,0.00800*%
%ADD32C,0.03000*%
%ADD33C,0.01500*%
%ADD34C,0.04200*%
%ADD35C,0.06000*%
%ADD36C,0.07874*%
%ADD37C,0.03937*%
%ADD38R,0.03937X0.03937*%
%ADD39C,0.02600*%
%ADD40C,0.03000*%
%ADD41C,0.02400*%
%ADD42C,0.03400*%
%ADD43C,0.05000*%
%ADD44C,0.04000*%
%ADD45C,0.04900*%
G04:AMPARAMS|DCode=46|XSize=65mil|YSize=65mil|CornerRadius=0mil|HoleSize=0mil|Usage=FLASHONLY|Rotation=0.000|XOffset=0mil|YOffset=0mil|HoleType=Round|Shape=Relief|Width=8mil|Gap=10mil|Entries=4|*
%AMTHD46*
7,0,0,0.06500,0.04500,0.00800,45*
%
%ADD46THD46*%
%ADD47C,0.06400*%
%ADD48C,0.08306*%
%ADD49C,0.04762*%
G04:AMPARAMS|DCode=50|XSize=63.622mil|YSize=63.622mil|CornerRadius=0mil|HoleSize=0mil|Usage=FLASHONLY|Rotation=0.000|XOffset=0mil|YOffset=0mil|HoleType=Round|Shape=Relief|Width=8mil|Gap=10mil|Entries=4|*
%AMTHD50*
7,0,0,0.06362,0.04362,0.00800,45*
%
%ADD50THD50*%
G04:AMPARAMS|DCode=51|XSize=80mil|YSize=80mil|CornerRadius=0mil|HoleSize=0mil|Usage=FLASHONLY|Rotation=0.000|XOffset=0mil|YOffset=0mil|HoleType=Round|Shape=Relief|Width=8mil|Gap=10mil|Entries=4|*
%AMTHD51*
7,0,0,0.08000,0.06000,0.00800,45*
%
%ADD51THD51*%
G04:AMPARAMS|DCode=52|XSize=50mil|YSize=50mil|CornerRadius=0mil|HoleSize=0mil|Usage=FLASHONLY|Rotation=0.000|XOffset=0mil|YOffset=0mil|HoleType=Round|Shape=Relief|Width=8mil|Gap=10mil|Entries=4|*
%AMTHD52*
7,0,0,0.05000,0.03000,0.00800,45*
%
%ADD52THD52*%
%ADD53C,0.04000*%
G04:AMPARAMS|DCode=54|XSize=56mil|YSize=56mil|CornerRadius=0mil|HoleSize=0mil|Usage=FLASHONLY|Rotation=0.000|XOffset=0mil|YOffset=0mil|HoleType=Round|Shape=Relief|Width=8mil|Gap=10mil|Entries=4|*
%AMTHD54*
7,0,0,0.05600,0.03600,0.00800,45*
%
%ADD54THD54*%
%ADD55C,0.03200*%
%ADD56C,0.04400*%
%ADD57C,0.05200*%
G36*
X313835Y206081D02*
X313779Y197777D01*
X313774Y197777D01*
Y197777D01*
X294361Y197777D01*
X294361Y193959D01*
X222885D01*
X222514Y194514D01*
X221819Y194978D01*
X221000Y195141D01*
X220181Y194978D01*
X219486Y194514D01*
X219022Y193819D01*
X218859Y193000D01*
X219022Y192181D01*
X219486Y191486D01*
X220181Y191022D01*
X221000Y190859D01*
X221819Y191022D01*
X222514Y191486D01*
X222531Y191512D01*
X283406D01*
X283505Y94881D01*
X283601Y94651D01*
X283695Y94423D01*
X283696Y94423D01*
X283696Y94422D01*
X283925Y94328D01*
X284155Y94232D01*
X294195Y94232D01*
X294195Y94232D01*
X294195D01*
X294276Y94232D01*
X294276Y94232D01*
X294736Y94423D01*
X294926Y94882D01*
X294926Y94882D01*
X294926Y94963D01*
Y94963D01*
Y94963D01*
X294926Y134411D01*
X308795Y134411D01*
X313326Y129881D01*
X313257Y119671D01*
X313251Y118738D01*
X313251D01*
X313251Y118738D01*
X308413D01*
Y117888D01*
X308267Y117859D01*
X307639Y117438D01*
X307219Y116810D01*
X307071Y116069D01*
X307219Y115327D01*
X307639Y114699D01*
X307887Y114533D01*
Y99973D01*
X307620Y99706D01*
X307620Y99706D01*
X297914Y90000D01*
X289709D01*
X289000Y90141D01*
X288291Y90000D01*
X251023Y90000D01*
X251014Y90014D01*
X250319Y90478D01*
X249500Y90641D01*
X249130Y90567D01*
X248293Y91276D01*
X248263Y91337D01*
X248303Y91535D01*
X248140Y92355D01*
X247675Y93049D01*
X246981Y93514D01*
X246161Y93677D01*
X245342Y93514D01*
X244647Y93049D01*
X244183Y92355D01*
X244020Y91535D01*
X244183Y90716D01*
X244647Y90021D01*
X245342Y89557D01*
X246161Y89394D01*
X246532Y89468D01*
X247369Y88760D01*
X247398Y88698D01*
X247359Y88500D01*
X247522Y87681D01*
X247986Y86986D01*
X248681Y86522D01*
X249500Y86359D01*
X249500Y43553D01*
X246898Y40951D01*
X246555Y41019D01*
X245736Y40856D01*
X245041Y40392D01*
X244577Y39697D01*
X244414Y38878D01*
X244577Y38059D01*
X245041Y37364D01*
X245736Y36900D01*
X246555Y36737D01*
X247375Y36900D01*
X248069Y37364D01*
X248500Y38009D01*
X248574Y38022D01*
X249500Y37629D01*
Y30807D01*
X247740Y29047D01*
X247386Y28517D01*
X247262Y27893D01*
Y8638D01*
X245790Y7166D01*
X245742Y7094D01*
X245512Y7125D01*
X244841Y7036D01*
X244216Y6778D01*
X243680Y6366D01*
X243613Y6278D01*
X243573Y6258D01*
X242450D01*
X242411Y6278D01*
X242344Y6366D01*
X241807Y6778D01*
X241182Y7036D01*
X240512Y7125D01*
X239841Y7036D01*
X239216Y6778D01*
X238922Y6551D01*
X238015Y6543D01*
X237634Y6645D01*
X237629Y6651D01*
X237009Y7127D01*
X236287Y7426D01*
X235912Y7475D01*
Y4534D01*
X235112D01*
Y7475D01*
X234737Y7426D01*
X234390Y7282D01*
X233527Y7736D01*
X233390Y7908D01*
X233390Y22092D01*
X237319Y26022D01*
X238014Y26486D01*
X238478Y27181D01*
X238641Y28000D01*
X238478Y28819D01*
X238014Y29514D01*
X237561Y29817D01*
X237536Y29941D01*
X237293Y30304D01*
X237293Y30304D01*
X223566Y44031D01*
X223566Y74131D01*
X223566Y74131D01*
Y101323D01*
X223566Y112564D01*
X223856Y112758D01*
X224321Y113452D01*
X224484Y114272D01*
X224321Y115091D01*
X223856Y115786D01*
X223566Y115980D01*
Y117378D01*
X234833D01*
X235136Y116378D01*
X234986Y116278D01*
X234522Y115583D01*
X234359Y114764D01*
X234522Y113944D01*
X234986Y113250D01*
X235681Y112786D01*
X236500Y112623D01*
X237319Y112786D01*
X238014Y113250D01*
X238478Y113944D01*
X238641Y114764D01*
X238607Y114934D01*
X239529Y115427D01*
X241873Y113083D01*
X241757Y112500D01*
X241919Y111681D01*
X242384Y110986D01*
X243078Y110522D01*
X243898Y110359D01*
X244717Y110522D01*
X245412Y110986D01*
X245876Y111681D01*
X246039Y112500D01*
X245876Y113319D01*
X245412Y114014D01*
X244717Y114478D01*
X243898Y114641D01*
X243314Y114525D01*
X238721Y119119D01*
X238390Y119340D01*
X238000Y119417D01*
X222171D01*
X221781Y119340D01*
X221450Y119119D01*
X220922Y118590D01*
X219466D01*
Y136529D01*
X220466Y136832D01*
X220556Y136698D01*
X221383Y136145D01*
X221958Y136031D01*
Y138500D01*
Y140969D01*
X221383Y140855D01*
X221057Y140637D01*
X219977Y141099D01*
X219936Y141374D01*
X220105Y141486D01*
X220569Y142181D01*
X220732Y143000D01*
X220569Y143819D01*
X220105Y144514D01*
X219410Y144978D01*
X218590Y145141D01*
X217771Y144978D01*
X217076Y144514D01*
X216612Y143819D01*
X216449Y143000D01*
X216612Y142181D01*
X217019Y141572D01*
Y138194D01*
X216019Y137660D01*
X215819Y137793D01*
X215000Y137956D01*
X214181Y137793D01*
X213486Y137329D01*
X213022Y136634D01*
X212859Y135815D01*
X213022Y134996D01*
X213486Y134301D01*
X214181Y133837D01*
X215000Y133674D01*
X215819Y133837D01*
X216019Y133970D01*
X217019Y133436D01*
Y88990D01*
X207262Y79233D01*
X206996Y78836D01*
X206903Y78368D01*
Y76000D01*
X199901D01*
Y75960D01*
X199082Y75797D01*
X198388Y75333D01*
X197923Y74638D01*
X197760Y73819D01*
X197923Y73000D01*
X198388Y72305D01*
X198780Y72043D01*
Y65326D01*
X193935Y60480D01*
X193691Y60116D01*
X193606Y59687D01*
X193606Y59687D01*
Y46665D01*
X192606Y46036D01*
X192428Y46072D01*
Y43602D01*
Y41133D01*
X192606Y41168D01*
X193606Y40539D01*
Y38213D01*
X184000D01*
X184000Y205000D01*
X187540Y208540D01*
X311392D01*
X313835Y206081D01*
D02*
G37*
%LPC*%
G36*
X304500Y108191D02*
X303759Y108044D01*
X303130Y107624D01*
X302710Y106995D01*
X302563Y106254D01*
X302710Y105513D01*
X303130Y104884D01*
X303759Y104464D01*
X304500Y104317D01*
X305241Y104464D01*
X305870Y104884D01*
X306290Y105513D01*
X306437Y106254D01*
X306290Y106995D01*
X305870Y107624D01*
X305241Y108044D01*
X304500Y108191D01*
D02*
G37*
G36*
X207095Y105506D02*
X205026D01*
Y103436D01*
X205601Y103551D01*
X206428Y104103D01*
X206981Y104930D01*
X207095Y105506D01*
D02*
G37*
G36*
X204226D02*
X202157D01*
X202271Y104930D01*
X202824Y104103D01*
X203650Y103551D01*
X204226Y103436D01*
Y105506D01*
D02*
G37*
G36*
Y108375D02*
X203650Y108261D01*
X202824Y107708D01*
X202271Y106881D01*
X202157Y106306D01*
X204226D01*
Y108375D01*
D02*
G37*
G36*
X303600Y129423D02*
X301734D01*
X301833Y128925D01*
X302342Y128165D01*
X303103Y127656D01*
X303600Y127557D01*
Y129423D01*
D02*
G37*
G36*
X306265D02*
X304400D01*
Y127557D01*
X304897Y127656D01*
X305658Y128165D01*
X306167Y128925D01*
X306265Y129423D01*
D02*
G37*
G36*
X205026Y108375D02*
Y106306D01*
X207095D01*
X206981Y106881D01*
X206428Y107708D01*
X205601Y108261D01*
X205026Y108375D01*
D02*
G37*
G36*
X199902Y113641D02*
X199082Y113478D01*
X198388Y113014D01*
X197923Y112319D01*
X197760Y111500D01*
X197923Y110681D01*
X198388Y109986D01*
X199082Y109522D01*
X199902Y109359D01*
X200721Y109522D01*
X201416Y109986D01*
X201880Y110681D01*
X202043Y111500D01*
X201880Y112319D01*
X201416Y113014D01*
X200721Y113478D01*
X199902Y113641D01*
D02*
G37*
G36*
X239000Y111641D02*
X238181Y111478D01*
X237486Y111014D01*
X237292Y110723D01*
X236292D01*
X235824Y110630D01*
X235427Y110365D01*
X228226Y103165D01*
X227961Y102768D01*
X227868Y102299D01*
Y81362D01*
X227961Y80894D01*
X228226Y80497D01*
X228651Y80072D01*
X228322Y78987D01*
X228118Y78947D01*
X227423Y78483D01*
X226959Y77788D01*
X226796Y76968D01*
X226959Y76149D01*
X227423Y75454D01*
X228118Y74990D01*
X228937Y74827D01*
X229531Y74945D01*
X230160Y74505D01*
X230399Y74217D01*
X230339Y73917D01*
X230502Y73098D01*
X230966Y72403D01*
X231661Y71939D01*
X232480Y71776D01*
X233300Y71939D01*
X233994Y72403D01*
X234458Y73098D01*
X234622Y73917D01*
X234458Y74737D01*
X233994Y75431D01*
X233300Y75896D01*
X232480Y76059D01*
X231767Y76936D01*
X231796Y77134D01*
X231859Y77222D01*
X232036Y77277D01*
X234941D01*
X235022Y76871D01*
X235486Y76176D01*
X236181Y75712D01*
X237000Y75549D01*
X237819Y75712D01*
X238514Y76176D01*
X238978Y76871D01*
X239141Y77690D01*
X238978Y78509D01*
X238514Y79204D01*
X237819Y79668D01*
X237000Y79831D01*
X236326Y79697D01*
X236189Y79724D01*
X235721D01*
X235117Y80724D01*
X235171Y80994D01*
X239408Y85231D01*
X239761Y85760D01*
X239886Y86384D01*
Y103071D01*
X240886Y103170D01*
X240935Y102921D01*
X241399Y102226D01*
X242094Y101762D01*
X242913Y101599D01*
X243636Y101743D01*
X243818Y101711D01*
X244686Y101196D01*
X244774Y100755D01*
X245238Y100061D01*
X245933Y99597D01*
X246752Y99434D01*
X247571Y99597D01*
X248266Y100061D01*
X248730Y100755D01*
X248893Y101575D01*
X248730Y102394D01*
X248266Y103089D01*
X247571Y103553D01*
X246752Y103716D01*
X246030Y103572D01*
X245847Y103604D01*
X244979Y104119D01*
X244892Y104560D01*
X244427Y105254D01*
X243733Y105718D01*
X242913Y105881D01*
X242094Y105718D01*
X241399Y105254D01*
X241293Y105095D01*
X240351Y105485D01*
X240395Y105709D01*
X240232Y106528D01*
X240159Y106638D01*
X239886Y107349D01*
X240414Y107919D01*
X240514Y107986D01*
X240978Y108681D01*
X241141Y109500D01*
X240978Y110319D01*
X240514Y111014D01*
X239819Y111478D01*
X239000Y111641D01*
D02*
G37*
G36*
X229000Y57236D02*
X228181Y57073D01*
X227486Y56608D01*
X227022Y55914D01*
X226859Y55094D01*
X227022Y54275D01*
X227486Y53580D01*
X228181Y53116D01*
X229000Y52953D01*
X229819Y53116D01*
X230514Y53580D01*
X230978Y54275D01*
X231141Y55094D01*
X230978Y55914D01*
X230514Y56608D01*
X229819Y57073D01*
X229000Y57236D01*
D02*
G37*
G36*
X245281Y77043D02*
X244461Y76880D01*
X243767Y76416D01*
X243303Y75721D01*
X243140Y74902D01*
X243303Y74082D01*
X243767Y73388D01*
X244461Y72923D01*
X245281Y72760D01*
X246100Y72923D01*
X246795Y73388D01*
X247259Y74082D01*
X247422Y74902D01*
X247259Y75721D01*
X246795Y76416D01*
X246100Y76880D01*
X245281Y77043D01*
D02*
G37*
G36*
X191628Y43202D02*
X189558D01*
X189673Y42627D01*
X190225Y41800D01*
X191052Y41247D01*
X191628Y41133D01*
Y43202D01*
D02*
G37*
G36*
Y46072D02*
X191052Y45957D01*
X190225Y45405D01*
X189673Y44578D01*
X189558Y44002D01*
X191628D01*
Y46072D01*
D02*
G37*
G36*
X213000Y92141D02*
X212181Y91978D01*
X211486Y91514D01*
X211022Y90819D01*
X210859Y90000D01*
X211022Y89181D01*
X211486Y88486D01*
X212181Y88022D01*
X213000Y87859D01*
X213819Y88022D01*
X214514Y88486D01*
X214978Y89181D01*
X215141Y90000D01*
X214978Y90819D01*
X214514Y91514D01*
X213819Y91978D01*
X213000Y92141D01*
D02*
G37*
G36*
Y103141D02*
X212181Y102978D01*
X211486Y102514D01*
X211022Y101819D01*
X210859Y101000D01*
X211022Y100181D01*
X211486Y99486D01*
X212181Y99022D01*
X213000Y98859D01*
X213819Y99022D01*
X214514Y99486D01*
X214978Y100181D01*
X215141Y101000D01*
X214978Y101819D01*
X214514Y102514D01*
X213819Y102978D01*
X213000Y103141D01*
D02*
G37*
G36*
X242979Y86590D02*
X242160Y86427D01*
X241465Y85963D01*
X241001Y85268D01*
X240838Y84449D01*
X241001Y83629D01*
X241465Y82935D01*
X242160Y82471D01*
X242979Y82308D01*
X243799Y82471D01*
X244493Y82935D01*
X244957Y83629D01*
X245120Y84449D01*
X244957Y85268D01*
X244493Y85963D01*
X243799Y86427D01*
X242979Y86590D01*
D02*
G37*
G36*
X206004Y89247D02*
X205185Y89085D01*
X204490Y88620D01*
X204026Y87926D01*
X203863Y87106D01*
X204026Y86287D01*
X204490Y85592D01*
X205185Y85128D01*
X206004Y84965D01*
X206823Y85128D01*
X207518Y85592D01*
X207982Y86287D01*
X208145Y87106D01*
X207982Y87926D01*
X207518Y88620D01*
X206823Y89085D01*
X206004Y89247D01*
D02*
G37*
G36*
X209809Y206143D02*
Y203201D01*
Y200260D01*
X210184Y200309D01*
X210907Y200608D01*
X211527Y201084D01*
X211531Y201090D01*
X211913Y201192D01*
X212820Y201184D01*
X213114Y200958D01*
X213739Y200699D01*
X214409Y200611D01*
X215080Y200699D01*
X215705Y200958D01*
X216241Y201370D01*
X216308Y201457D01*
X216348Y201478D01*
X217471D01*
X217511Y201457D01*
X217578Y201370D01*
X218114Y200958D01*
X218739Y200699D01*
X219409Y200611D01*
X220080Y200699D01*
X220705Y200958D01*
X221241Y201370D01*
X221308Y201457D01*
X221348Y201478D01*
X222471D01*
X222511Y201457D01*
X222578Y201370D01*
X223114Y200958D01*
X223739Y200699D01*
X224410Y200611D01*
X225080Y200699D01*
X225705Y200958D01*
X226241Y201370D01*
X226308Y201457D01*
X226348Y201478D01*
X227471D01*
X227510Y201457D01*
X227578Y201370D01*
X228114Y200958D01*
X228739Y200699D01*
X229410Y200611D01*
X230080Y200699D01*
X230705Y200958D01*
X231241Y201370D01*
X231308Y201457D01*
X231348Y201478D01*
X232471D01*
X232510Y201457D01*
X232578Y201370D01*
X233114Y200958D01*
X233739Y200699D01*
X234409Y200611D01*
X235080Y200699D01*
X235705Y200958D01*
X236241Y201370D01*
X236653Y201906D01*
X236912Y202531D01*
X237000Y203201D01*
X236912Y203872D01*
X236653Y204497D01*
X236241Y205033D01*
X235705Y205445D01*
X235080Y205704D01*
X234409Y205792D01*
X233739Y205704D01*
X233114Y205445D01*
X232578Y205033D01*
X232510Y204946D01*
X232471Y204925D01*
X231348D01*
X231308Y204946D01*
X231241Y205033D01*
X230705Y205445D01*
X230080Y205704D01*
X229410Y205792D01*
X228739Y205704D01*
X228114Y205445D01*
X227578Y205033D01*
X227510Y204946D01*
X227471Y204925D01*
X226348D01*
X226308Y204946D01*
X226241Y205033D01*
X225705Y205445D01*
X225080Y205704D01*
X224410Y205792D01*
X223739Y205704D01*
X223114Y205445D01*
X222578Y205033D01*
X222511Y204946D01*
X222471Y204925D01*
X221348D01*
X221308Y204946D01*
X221241Y205033D01*
X220705Y205445D01*
X220080Y205704D01*
X219409Y205792D01*
X218739Y205704D01*
X218114Y205445D01*
X217578Y205033D01*
X217511Y204946D01*
X217471Y204925D01*
X216348D01*
X216308Y204946D01*
X216241Y205033D01*
X215705Y205445D01*
X215080Y205704D01*
X214409Y205792D01*
X213739Y205704D01*
X213114Y205445D01*
X212820Y205219D01*
X211913Y205211D01*
X211531Y205312D01*
X211527Y205319D01*
X210907Y205794D01*
X210184Y206094D01*
X209809Y206143D01*
D02*
G37*
G36*
X312725Y203439D02*
X310184D01*
Y200897D01*
X310558Y200946D01*
X311280Y201246D01*
X311901Y201721D01*
X312376Y202342D01*
X312676Y203064D01*
X312725Y203439D01*
D02*
G37*
G36*
X250098Y186885D02*
X249279Y186722D01*
X248584Y186258D01*
X248120Y185564D01*
X247957Y184744D01*
X248120Y183925D01*
X248584Y183230D01*
X249279Y182766D01*
X250098Y182603D01*
X250918Y182766D01*
X251612Y183230D01*
X252077Y183925D01*
X252240Y184744D01*
X252077Y185564D01*
X251612Y186258D01*
X250918Y186722D01*
X250098Y186885D01*
D02*
G37*
G36*
X260151Y203332D02*
X259331Y203169D01*
X258636Y202705D01*
X258172Y202010D01*
X258009Y201191D01*
X258172Y200372D01*
X258636Y199677D01*
X259331Y199213D01*
X260151Y199050D01*
X260970Y199213D01*
X261665Y199677D01*
X262129Y200372D01*
X262292Y201191D01*
X262129Y202010D01*
X261665Y202705D01*
X260970Y203169D01*
X260151Y203332D01*
D02*
G37*
G36*
X209010Y206143D02*
X208634Y206094D01*
X207912Y205794D01*
X207292Y205319D01*
X207288Y205312D01*
X206906Y205211D01*
X205999Y205219D01*
X205705Y205445D01*
X205080Y205704D01*
X204409Y205792D01*
X203739Y205704D01*
X203114Y205445D01*
X202978Y205341D01*
X201978Y205770D01*
Y205770D01*
X201978Y205770D01*
X196841D01*
Y200633D01*
X200665D01*
X201048Y199709D01*
X196287Y194949D01*
X195934Y194420D01*
X195810Y193795D01*
Y133130D01*
X195463Y132611D01*
X195300Y131791D01*
X195463Y130972D01*
X195927Y130277D01*
X196622Y129813D01*
X197441Y129650D01*
X198260Y129813D01*
X198955Y130277D01*
X199419Y130972D01*
X199582Y131791D01*
X199419Y132611D01*
X199072Y133130D01*
Y193120D01*
X205563Y199610D01*
X205917Y200139D01*
X206025Y200687D01*
X206458Y200939D01*
X207002Y201167D01*
X207288Y201090D01*
X207292Y201084D01*
X207912Y200608D01*
X208634Y200309D01*
X209010Y200260D01*
Y203201D01*
Y206143D01*
D02*
G37*
G36*
X309384Y206780D02*
X309009Y206731D01*
X308286Y206432D01*
X307666Y205956D01*
X307662Y205950D01*
X307280Y205848D01*
X306374Y205856D01*
X306079Y206082D01*
X305454Y206341D01*
X304784Y206429D01*
X304113Y206341D01*
X303488Y206082D01*
X302952Y205670D01*
X302885Y205583D01*
X302845Y205562D01*
X301722D01*
X301682Y205583D01*
X301615Y205670D01*
X301079Y206082D01*
X300454Y206341D01*
X299783Y206429D01*
X299113Y206341D01*
X298488Y206082D01*
X298352Y205978D01*
X297352Y206407D01*
Y206407D01*
X297352Y206407D01*
X292215D01*
Y201270D01*
X297352D01*
X297352Y201270D01*
Y201270D01*
X298352Y201699D01*
X298488Y201595D01*
X299113Y201336D01*
X299783Y201248D01*
X300454Y201336D01*
X301079Y201595D01*
X301615Y202007D01*
X301682Y202094D01*
X301722Y202115D01*
X302845D01*
X302885Y202094D01*
X302952Y202007D01*
X303488Y201595D01*
X304113Y201336D01*
X304784Y201248D01*
X305454Y201336D01*
X306079Y201595D01*
X306374Y201821D01*
X307280Y201829D01*
X307662Y201728D01*
X307666Y201721D01*
X308286Y201246D01*
X309009Y200946D01*
X309384Y200897D01*
Y203839D01*
Y206780D01*
D02*
G37*
G36*
X277362Y207349D02*
X276657Y207257D01*
X276001Y206984D01*
X275436Y206552D01*
X275004Y205988D01*
X274732Y205331D01*
X274639Y204626D01*
X274732Y203921D01*
X275004Y203264D01*
X275436Y202700D01*
X276001Y202268D01*
X276657Y201995D01*
X277362Y201903D01*
X278067Y201995D01*
X278724Y202268D01*
X279288Y202700D01*
X279721Y203264D01*
X279993Y203921D01*
X280085Y204626D01*
X279993Y205331D01*
X279721Y205988D01*
X279288Y206552D01*
X278724Y206984D01*
X278067Y207257D01*
X277362Y207349D01*
D02*
G37*
G36*
X310184Y206780D02*
Y204239D01*
X312725D01*
X312676Y204613D01*
X312376Y205336D01*
X311901Y205956D01*
X311280Y206432D01*
X310558Y206731D01*
X310184Y206780D01*
D02*
G37*
G36*
X220752Y178141D02*
X219933Y177978D01*
X219238Y177514D01*
X218774Y176819D01*
X218611Y176000D01*
X218774Y175181D01*
X219238Y174486D01*
X219933Y174022D01*
X220752Y173859D01*
X221571Y174022D01*
X222266Y174486D01*
X222730Y175181D01*
X222893Y176000D01*
X222730Y176819D01*
X222266Y177514D01*
X221571Y177978D01*
X220752Y178141D01*
D02*
G37*
G36*
X224828Y138100D02*
X222758D01*
Y136031D01*
X223334Y136145D01*
X224161Y136698D01*
X224713Y137524D01*
X224828Y138100D01*
D02*
G37*
G36*
X222758Y140969D02*
Y138900D01*
X224828D01*
X224713Y139476D01*
X224161Y140302D01*
X223334Y140855D01*
X222758Y140969D01*
D02*
G37*
G36*
X303600Y132088D02*
X303103Y131989D01*
X302342Y131481D01*
X301833Y130720D01*
X301734Y130223D01*
X303600D01*
Y132088D01*
D02*
G37*
G36*
X304400D02*
Y130223D01*
X306265D01*
X306167Y130720D01*
X305658Y131481D01*
X304897Y131989D01*
X304400Y132088D01*
D02*
G37*
G36*
X214469Y169464D02*
X213649Y169301D01*
X212954Y168837D01*
X212490Y168142D01*
X212327Y167323D01*
X212490Y166503D01*
X212954Y165809D01*
X213649Y165345D01*
X214469Y165182D01*
X215288Y165345D01*
X215983Y165809D01*
X216447Y166503D01*
X216610Y167323D01*
X216447Y168142D01*
X215983Y168837D01*
X215288Y169301D01*
X214469Y169464D01*
D02*
G37*
G36*
X273139Y176444D02*
X272320Y176281D01*
X271625Y175817D01*
X271161Y175122D01*
X270998Y174303D01*
X271161Y173484D01*
X271625Y172789D01*
X272320Y172325D01*
X273139Y172162D01*
X273959Y172325D01*
X274653Y172789D01*
X275117Y173484D01*
X275280Y174303D01*
X275117Y175122D01*
X274653Y175817D01*
X273959Y176281D01*
X273139Y176444D01*
D02*
G37*
G36*
X235906Y150763D02*
X235086Y150600D01*
X234391Y150136D01*
X233927Y149441D01*
X233764Y148622D01*
X233927Y147803D01*
X234391Y147108D01*
X235086Y146644D01*
X235906Y146481D01*
X236725Y146644D01*
X237420Y147108D01*
X237884Y147803D01*
X238047Y148622D01*
X237884Y149441D01*
X237420Y150136D01*
X236725Y150600D01*
X235906Y150763D01*
D02*
G37*
G36*
X247746Y175397D02*
X236777D01*
X236153Y175273D01*
X235623Y174919D01*
X227788Y167084D01*
X227500Y167141D01*
X226681Y166978D01*
X225986Y166514D01*
X225522Y165819D01*
X225359Y165000D01*
X225522Y164181D01*
X225986Y163486D01*
X226681Y163022D01*
X227500Y162859D01*
X228319Y163022D01*
X229014Y163486D01*
X229436Y164118D01*
X234749Y169431D01*
X234919Y169292D01*
X234919Y169292D01*
X235501Y168814D01*
X235516Y168802D01*
X235525Y168794D01*
X235526Y168793D01*
X235525Y168793D01*
X235465Y168702D01*
D01*
X235303Y168459D01*
X235140Y167640D01*
X235303Y166821D01*
X235767Y166126D01*
X236462Y165662D01*
X237281Y165499D01*
X238101Y165662D01*
X238795Y166126D01*
X239259Y166821D01*
X239422Y167640D01*
X239259Y168459D01*
X238795Y169154D01*
X238101Y169618D01*
X237281Y169781D01*
X236462Y169618D01*
X236219Y169456D01*
X236219Y169456D01*
X236129Y169396D01*
X236128Y169395D01*
X236127Y169396D01*
X236119Y169405D01*
X236107Y169420D01*
X235629Y170003D01*
X235629Y170003D01*
X235490Y170172D01*
X237453Y172134D01*
X246452D01*
X246487Y172064D01*
X246268Y171649D01*
X245840Y171109D01*
X245181Y170978D01*
X244486Y170514D01*
X244022Y169819D01*
X243883Y169124D01*
X227346Y152587D01*
X226993Y152057D01*
X226869Y151433D01*
Y132673D01*
X226444Y132588D01*
X225750Y132124D01*
X225286Y131430D01*
X225123Y130610D01*
X225286Y129791D01*
X225750Y129096D01*
X226444Y128632D01*
X227264Y128469D01*
X228083Y128632D01*
X228778Y129096D01*
X229242Y129791D01*
X229266Y129912D01*
X229654Y130299D01*
X230007Y130828D01*
X230131Y131453D01*
Y150757D01*
X246291Y166917D01*
X246819Y167022D01*
X247514Y167486D01*
X247978Y168181D01*
X248141Y169000D01*
X247978Y169819D01*
X248769Y170436D01*
X251569Y167636D01*
Y164736D01*
X250569Y164432D01*
X250514Y164514D01*
X249819Y164978D01*
X249000Y165141D01*
X248181Y164978D01*
X247486Y164514D01*
X247022Y163819D01*
X246859Y163000D01*
X247022Y162181D01*
X247486Y161486D01*
X248181Y161022D01*
X249000Y160859D01*
X249819Y161022D01*
X250112Y161217D01*
X250749Y160440D01*
X248534Y158226D01*
X247805D01*
X247286Y158573D01*
X246467Y158736D01*
X245647Y158573D01*
X244953Y158108D01*
X244489Y157414D01*
X244326Y156595D01*
X244489Y155775D01*
X244953Y155080D01*
X245647Y154616D01*
X246467Y154453D01*
X247286Y154616D01*
X247805Y154963D01*
X249210D01*
X249834Y155087D01*
X250364Y155441D01*
X254353Y159431D01*
X254707Y159960D01*
X254831Y160584D01*
Y168312D01*
X254707Y168936D01*
X254353Y169465D01*
X248900Y174919D01*
X248371Y175273D01*
X247746Y175397D01*
D02*
G37*
%LPD*%
D26*
X298425Y185398D02*
X302000Y181823D01*
Y151642D02*
Y181823D01*
Y151642D02*
X312795Y140847D01*
X299783Y125606D02*
X304000Y129823D01*
X299783Y122716D02*
Y125606D01*
X253002Y46998D02*
Y70755D01*
Y46998D02*
X257000Y43000D01*
X259351Y77103D02*
X281085D01*
X253002Y70755D02*
X259351Y77103D01*
X281085D02*
X287082Y83100D01*
X257000Y36000D02*
Y43000D01*
X248893Y27893D02*
X257000Y36000D01*
X248893Y7962D02*
Y27893D01*
X246943Y6012D02*
X248893Y7962D01*
X316366Y103642D02*
X319783D01*
X295824Y83100D02*
X316366Y103642D01*
X287082Y83100D02*
X295824D01*
X245512Y4134D02*
X245512D01*
X197441Y131791D02*
Y193795D01*
X204409Y200764D01*
Y203201D01*
X204000Y106532D02*
Y145978D01*
Y106532D02*
X204626Y105905D01*
X204000Y145978D02*
X204926Y146904D01*
X222358Y138500D02*
Y144642D01*
X220096Y146904D02*
X222358Y144642D01*
X204926Y146904D02*
X220096D01*
X228500Y131453D02*
Y151433D01*
X227362Y130315D02*
X228500Y131453D01*
Y151433D02*
X246000Y168933D01*
X313583Y78937D02*
X321063D01*
X312795Y137795D02*
X328248Y122343D01*
X312795Y137795D02*
Y140847D01*
X327461Y176673D02*
Y176934D01*
X318996Y185398D02*
X327461Y176934D01*
X209409Y195988D02*
Y203201D01*
X204000Y190579D02*
X209409Y195988D01*
X204000Y145978D02*
Y190579D01*
X323524Y30217D02*
X329823Y23425D01*
X306791Y30217D02*
X323524D01*
X317602Y65354D02*
X320957Y62000D01*
X309350Y65354D02*
X317602D01*
X289412Y65847D02*
X293054Y69488D01*
X307087D01*
X276969Y62303D02*
X295053Y44219D01*
X307677D01*
X311982Y48524D01*
X326949D01*
X209429Y203201D02*
Y203248D01*
X238254Y86384D02*
Y105709D01*
X296864Y79864D02*
X302000Y85000D01*
X288389Y79864D02*
X296864D01*
X311319Y81201D02*
X313583Y78937D01*
X246000Y168933D02*
Y169000D01*
X249210Y156595D02*
X253200Y160584D01*
X236777Y173766D02*
X247746D01*
X253200Y168312D01*
Y160584D02*
Y168312D01*
X228011Y165000D02*
X236777Y173766D01*
X227500Y165000D02*
X228011D01*
X222358Y129653D02*
X230958Y121053D01*
X239947D01*
X222358Y129653D02*
Y138500D01*
X299783Y96284D02*
Y122716D01*
X267800Y93200D02*
X283432D01*
X239947Y121053D02*
X267800Y93200D01*
X283432D02*
X283450Y93182D01*
X296682D01*
X299783Y96284D01*
X233071Y81201D02*
X238254Y86384D01*
X246467Y156595D02*
X249210D01*
D27*
X208500Y61000D02*
X209211D01*
X250802Y43125D02*
Y81095D01*
X255207Y85500D01*
X263500D01*
X218243Y88484D02*
Y142652D01*
X208127Y78368D02*
X218243Y88484D01*
X208127Y71027D02*
Y78368D01*
X218243Y142652D02*
X218590Y143000D01*
X209500Y68500D02*
Y69654D01*
X208127Y71027D02*
X209500Y69654D01*
X226560Y9280D02*
Y21440D01*
X209500Y38500D02*
X226560Y21440D01*
X209500Y38500D02*
Y39567D01*
X226560Y9280D02*
X230512Y5328D01*
X246555Y38878D02*
X250802Y43125D01*
X221000Y192735D02*
X294649D01*
X230512Y4134D02*
Y5328D01*
X204409Y45869D02*
X206911Y48371D01*
X204409Y10236D02*
Y45869D01*
X222342Y74131D02*
Y114272D01*
X209211Y61000D02*
X222342Y74131D01*
X311688Y189000D02*
X322500D01*
X308017Y192670D02*
X311688Y189000D01*
X294714Y192670D02*
X308017D01*
X294649Y192735D02*
X294714Y192670D01*
X322500Y189000D02*
X327000Y193500D01*
X229091Y81362D02*
X231953Y78501D01*
X229091Y102299D02*
X236292Y109500D01*
X239000D01*
X229091Y81362D02*
Y102299D01*
X236189Y78501D02*
X237000Y77690D01*
X231953Y78501D02*
X236189D01*
X257029Y15529D02*
X261000Y19500D01*
X255512Y4134D02*
X257029Y5651D01*
Y15529D01*
X261000Y19500D02*
Y54898D01*
X277264Y71161D01*
X254429Y8051D02*
Y27165D01*
X250512Y4134D02*
X254429Y8051D01*
X208045Y48500D02*
X208414D01*
X326391Y193500D02*
X327000D01*
X328420Y103035D02*
Y110806D01*
X256102Y69095D02*
X261811Y74803D01*
X300189D02*
X328420Y103035D01*
X261811Y74803D02*
X300189D01*
X206911Y48371D02*
X208285D01*
X208414Y48500D01*
X204409Y10236D02*
X210512Y4134D01*
D28*
X309009Y99509D02*
Y116069D01*
X308413Y98913D02*
X309009Y99509D01*
X302559Y142233D02*
Y142913D01*
Y142233D02*
X326550Y118243D01*
X329946D01*
X205836Y60176D02*
X236500Y29511D01*
X202695Y60176D02*
X205836D01*
X236500Y28000D02*
Y29511D01*
X249500Y88500D02*
X280113D01*
X283213Y85400D01*
X294900D02*
X308413Y98913D01*
X283213Y85400D02*
X294900D01*
X198130Y8702D02*
Y50485D01*
X195512Y6084D02*
X198130Y8702D01*
X195512Y4134D02*
Y6084D01*
X190512Y5158D02*
X196428Y11073D01*
Y53908D01*
X190512Y4134D02*
Y5158D01*
X267000Y25197D02*
X276404D01*
X276896Y24705D01*
X295604Y5259D01*
X204382Y54700D02*
X208227D01*
X202700Y53018D02*
X204382Y54700D01*
X207223Y54803D02*
X208125D01*
X202700Y51882D02*
Y53018D01*
X200173Y49355D02*
X202700Y51882D01*
X200000Y52355D02*
Y53000D01*
X196428Y53908D02*
X200492Y57973D01*
X208125Y54803D02*
X208227Y54700D01*
X200173Y4472D02*
Y49355D01*
X200492Y57973D02*
X202695Y60176D01*
X332348Y120644D02*
Y159384D01*
X329946Y118243D02*
X332348Y120644D01*
X327461Y164272D02*
X332348Y159384D01*
X198130Y50485D02*
X200000Y52355D01*
X295604Y5259D02*
X296000Y4847D01*
X199902Y64861D02*
Y73819D01*
X194728Y13350D02*
Y59687D01*
X199902Y64861D01*
X185512Y4134D02*
X194728Y13350D01*
X200173Y4472D02*
X200512Y4134D01*
D31*
X210827Y76905D02*
X219843Y85921D01*
X210827Y72146D02*
Y76905D01*
X219843Y116069D02*
X222171Y118398D01*
X219843Y85921D02*
Y116069D01*
X222171Y118398D02*
X238000D01*
X205512Y4134D02*
Y5488D01*
X202000Y9000D02*
X205512Y5488D01*
X202000Y9000D02*
Y47571D01*
X205721Y51292D01*
X206746Y12900D02*
Y44246D01*
Y12900D02*
X215512Y4134D01*
X206746Y44246D02*
X207500Y45000D01*
X205500Y52000D02*
X205681Y51819D01*
X207500Y45000D02*
X208000D01*
X238000Y118398D02*
X243898Y112500D01*
D34*
X327628Y176673D02*
D03*
Y164272D02*
D03*
D35*
X329213Y48917D02*
D03*
X328248Y122343D02*
D03*
X296000Y5640D02*
D03*
X328420Y110806D02*
D03*
X329213Y25197D02*
D03*
D37*
X185512Y4534D02*
D03*
X190512D02*
D03*
X195512D02*
D03*
X200512D02*
D03*
X205512D02*
D03*
X210512D02*
D03*
X215512D02*
D03*
X204409Y203201D02*
D03*
X209409D02*
D03*
X230512Y4534D02*
D03*
X235512D02*
D03*
X245512D02*
D03*
X250512D02*
D03*
X255512D02*
D03*
X309784Y203839D02*
D03*
D39*
X309009Y116069D02*
D03*
X302000Y170172D02*
D03*
X304000Y129823D02*
D03*
X208500Y61000D02*
D03*
X207223Y54803D02*
D03*
X205500Y52000D02*
D03*
X208045Y48500D02*
D03*
X312795Y140847D02*
D03*
X309350Y65354D02*
D03*
X307087Y69488D02*
D03*
X307677Y44219D02*
D03*
D40*
X302559Y142913D02*
D03*
X298425Y185398D02*
D03*
X221000Y193000D02*
D03*
X218590Y143000D02*
D03*
X267000Y25197D02*
D03*
X263500Y85500D02*
D03*
X318996Y185398D02*
D03*
X210827Y72146D02*
D03*
X209500Y68500D02*
D03*
X200000Y53000D02*
D03*
X254429Y27165D02*
D03*
X208000Y45000D02*
D03*
X209500Y39567D02*
D03*
X236500Y28000D02*
D03*
X227264Y130610D02*
D03*
X289412Y65847D02*
D03*
X306791Y30217D02*
D03*
X222342Y114272D02*
D03*
X256102Y69095D02*
D03*
X276969Y62303D02*
D03*
X277264Y71161D02*
D03*
X204626Y105905D02*
D03*
X238254Y105709D02*
D03*
X192028Y43602D02*
D03*
X246555Y38878D02*
D03*
X200492Y57973D02*
D03*
X197441Y131791D02*
D03*
X222358Y138500D02*
D03*
X327000Y193500D02*
D03*
X288389Y79864D02*
D03*
X246000Y169000D02*
D03*
X227500Y165000D02*
D03*
X243898Y112500D02*
D03*
X199902Y73819D02*
D03*
X249500Y88500D02*
D03*
X239000Y109500D02*
D03*
X233071Y81201D02*
D03*
X237000Y77690D02*
D03*
X246467Y156595D02*
D03*
D41*
X321063Y78937D02*
D03*
X320957Y62000D02*
D03*
X319783Y103642D02*
D03*
X302000Y85000D02*
D03*
X311319Y81201D02*
D03*
M02*
